<svg xmlns="http://www.w3.org/2000/svg" width="13.931" height="30.144" viewBox="0 0 13.931 30.144">
  <g id="Group_168" data-name="Group 168" transform="translate(-717.439 -864.686)">
    <g id="Group_167" data-name="Group 167" transform="translate(717.942 865.273)">
      <circle id="Ellipse_11" data-name="Ellipse 11" cx="3.145" cy="3.145" r="3.145" transform="translate(2.856 6.169) rotate(-78.782)" fill="none" stroke="#69c" stroke-miterlimit="10" stroke-width="1"/>
      <path id="Path_177" data-name="Path 177" d="M730.5,928.158H727.46v4.335a1.285,1.285,0,0,1-1.285,1.285h-3.538a1.287,1.287,0,0,1-1.287-1.285v-4.335h-3.043a.365.365,0,0,1-.354-.447l1.254-5.318h-.472a.7.7,0,0,1-.687-.863l1.7-7.363a2.033,2.033,0,0,1,1.98-1.576h5.354a2.033,2.033,0,0,1,1.98,1.576l1.7,7.363a.706.706,0,0,1-.687.863H729.6l1.252,5.318A.363.363,0,0,1,730.5,928.158Z" transform="translate(-717.942 -904.722)" fill="none" stroke="#69c" stroke-miterlimit="10" stroke-width="1"/>
    </g>
  </g>
</svg>
