<svg xmlns="http://www.w3.org/2000/svg" xmlns:xlink="http://www.w3.org/1999/xlink" width="240.669" height="291.65" viewBox="0 0 240.669 291.65">
  <defs>
    <linearGradient id="linear-gradient" x1="0.076" y1="0.938" x2="0.841" y2="0.13" gradientUnits="objectBoundingBox">
      <stop offset="0" stop-color="#6cf"/>
      <stop offset="0.002" stop-color="#66cbfe"/>
      <stop offset="0.203" stop-color="#66b5e8"/>
      <stop offset="0.42" stop-color="#66a5d8"/>
      <stop offset="0.667" stop-color="#669bce"/>
      <stop offset="1" stop-color="#69c"/>
    </linearGradient>
    <clipPath id="clip-path">
      <path id="SVGID" d="M895.955,771.388l-.533-.31a.791.791,0,0,1-.332-.725l.533.31A.791.791,0,0,0,895.955,771.388Z" transform="translate(-895.09 -770.353)" fill="#e3e2f2"/>
    </clipPath>
    <clipPath id="clip-path-2">
      <path id="SVGID-2" data-name="SVGID" d="M902.646,737.676l.533.31a.8.8,0,0,0-.8.077l-.533-.31A.8.8,0,0,1,902.646,737.676Z" transform="translate(-901.842 -737.599)" fill="#edecf8"/>
    </clipPath>
    <clipPath id="clip-path-3">
      <path id="SVGID-3" data-name="SVGID" d="M895.565,742.256l-.533-.309a2.5,2.5,0,0,1,1.129-1.955l.533.31A2.5,2.5,0,0,0,895.565,742.256Z" transform="translate(-895.032 -739.992)" fill="#edecf8"/>
    </clipPath>
    <clipPath id="clip-path-4">
      <path id="SVGID-4" data-name="SVGID" d="M895.955,798.566l-.533-.31a.79.79,0,0,1-.332-.725l.533.31A.79.79,0,0,0,895.955,798.566Z" transform="translate(-895.09 -797.532)" fill="#e3e2f2"/>
    </clipPath>
    <clipPath id="clip-path-5">
      <path id="SVGID-5" data-name="SVGID" d="M902.646,777.864l.533.309a.8.8,0,0,0-.8.077l-.533-.309A.8.8,0,0,1,902.646,777.864Z" transform="translate(-901.842 -777.787)" fill="#edecf8"/>
    </clipPath>
    <clipPath id="clip-path-6">
      <path id="SVGID-6" data-name="SVGID" d="M895.565,782.445l-.533-.309a2.5,2.5,0,0,1,1.129-1.954l.533.31A2.5,2.5,0,0,0,895.565,782.445Z" transform="translate(-895.032 -780.181)" fill="#edecf8"/>
    </clipPath>
    <clipPath id="clip-path-7">
      <path id="SVGID-7" data-name="SVGID" d="M550.97,570.658l2.214-1.287a2.7,2.7,0,0,1,2.725.262l-2.214,1.286A2.7,2.7,0,0,0,550.97,570.658Z" transform="translate(-550.97 -569.111)" fill="#e82e4a"/>
    </clipPath>
    <clipPath id="clip-path-8">
      <path id="SVGID-8" data-name="SVGID" d="M648.453,684.168l-2.214,1.287A2.679,2.679,0,0,0,647.36,683l2.214-1.287A2.678,2.678,0,0,1,648.453,684.168Z" transform="translate(-646.239 -681.715)" fill="#e82e4a"/>
    </clipPath>
    <clipPath id="clip-path-9">
      <path id="SVGID-9" data-name="SVGID" d="M638.027,617.411l2.214-1.287a8.451,8.451,0,0,1,3.821,6.615l-2.214,1.287A8.451,8.451,0,0,0,638.027,617.411Z" transform="translate(-638.027 -616.124)" fill="#e82e4a"/>
    </clipPath>
    <clipPath id="clip-path-10">
      <path id="SVGID-10" data-name="SVGID" d="M740.243,591.892l2.214-1.287a2.641,2.641,0,0,1,2.663.256l-2.214,1.287A2.639,2.639,0,0,0,740.243,591.892Z" transform="translate(-740.243 -590.351)" fill="#ffb700"/>
    </clipPath>
    <clipPath id="clip-path-11">
      <path id="SVGID-11" data-name="SVGID" d="M835.544,702.771l-2.214,1.287a2.615,2.615,0,0,0,1.095-2.395l2.214-1.287A2.616,2.616,0,0,1,835.544,702.771Z" transform="translate(-833.33 -700.376)" fill="#ffb700"/>
    </clipPath>
    <clipPath id="clip-path-12">
      <path id="SVGID-12" data-name="SVGID" d="M825.3,637.574l2.214-1.287a8.254,8.254,0,0,1,3.733,6.464l-2.214,1.286A8.254,8.254,0,0,0,825.3,637.574Z" transform="translate(-825.302 -636.287)" fill="#ffb700"/>
    </clipPath>
    <clipPath id="clip-path-13">
      <path id="SVGID-13" data-name="SVGID" d="M547.06,446.775l2.457-1.428a3.6,3.6,0,0,1,3.628.348l-2.457,1.428A3.594,3.594,0,0,0,547.06,446.775Z" transform="translate(-547.06 -445)" fill="#98a4e0"/>
    </clipPath>
    <clipPath id="clip-path-14">
      <path id="SVGID-14" data-name="SVGID" d="M713.565,619.708l-2.457,1.428a3.567,3.567,0,0,0,1.494-3.267l2.457-1.428A3.569,3.569,0,0,1,713.565,619.708Z" transform="translate(-711.108 -616.441)" fill="#98a4e0"/>
    </clipPath>
    <clipPath id="clip-path-15">
      <path id="SVGID-15" data-name="SVGID" d="M700.17,530.5l2.457-1.428a11.258,11.258,0,0,1,5.089,8.814l-2.457,1.428A11.26,11.26,0,0,0,700.17,530.5Z" transform="translate(-700.17 -529.072)" fill="#98a4e0"/>
    </clipPath>
    <clipPath id="clip-path-16">
      <path id="SVGID-16" data-name="SVGID" d="M660.3,834.118l4.331,2.517c-1.169-.68-2.79-.584-4.578.449l-4.331-2.517C657.507,833.535,659.127,833.439,660.3,834.118Z" transform="translate(-655.719 -833.684)" fill="#f4f4fb"/>
    </clipPath>
    <clipPath id="clip-path-17">
      <path id="SVGID-17" data-name="SVGID" d="M642.123,854.155l-4.331-2.516c-1.154-.671-1.87-2.1-1.876-4.125a14.126,14.126,0,0,1,6.409-11.1l4.331,2.517a14.123,14.123,0,0,0-6.409,11.1C640.254,852.058,640.969,853.484,642.123,854.155Z" transform="translate(-635.917 -836.412)" fill="#f4f4fb"/>
    </clipPath>
    <clipPath id="clip-path-18">
      <path id="SVGID-18" data-name="SVGID" d="M805.55,813.178a.357.357,0,0,1-.192.33c.025,8.413-5.9,18.673-13.223,22.9a.349.349,0,0,1-.184.326,28.207,28.207,0,0,0,9.649-10.152c.492-.852.492-.852,1.349-2.594.192-.391.407-.932.581-1.333.06-.138.6-1.489.962-2.705.12-.408.273-.954.374-1.368s.207-.952.3-1.36.152-.947.215-1.354.105-.953.132-1.363S805.537,813.576,805.55,813.178Z" transform="translate(-791.951 -813.178)" fill="#98a4e0"/>
    </clipPath>
    <clipPath id="clip-path-19">
      <path id="SVGID-19" data-name="SVGID" d="M795.051,910.946l4.331,2.517c-1.17-.679-2.79-.583-4.578.449l-4.331-2.516C792.261,910.363,793.881,910.267,795.051,910.946Z" transform="translate(-790.473 -910.512)" fill="#edecf8"/>
    </clipPath>
    <clipPath id="clip-path-20">
      <path id="SVGID-20" data-name="SVGID" d="M776.877,930.984l-4.331-2.517c-1.154-.671-1.87-2.1-1.876-4.125a14.125,14.125,0,0,1,6.409-11.1l4.331,2.516a14.125,14.125,0,0,0-6.409,11.1C775.008,928.887,775.723,930.313,776.877,930.984Z" transform="translate(-770.671 -913.241)" fill="#edecf8"/>
    </clipPath>
  </defs>
  <g id="Group_164" data-name="Group 164" transform="translate(-222.639 -445)">
    <path id="Path_5" data-name="Path 5" d="M242.618,672.419s-44.954,57.144,0,80.383,211.053-2.286,218.672-90.669-8.762-140.575-9.143-153.908-33.144-43.811-59.43-16S364.907,588.988,242.618,672.419Z" transform="translate(0 -24.276)" fill="#bbeafe" opacity="0.5"/>
    <g id="Group_163" data-name="Group 163" transform="translate(262.034 445)">
      <g id="Group_15" data-name="Group 15" transform="translate(51.849 162.002)">
        <g id="Group_14" data-name="Group 14">
          <g id="Group_9" data-name="Group 9" transform="translate(46.58 12.997)">
            <path id="Path_6" data-name="Path 6" d="M648.934,1061.017l35.768-20.652,0-.267c0-.314,0-53.151,0-54.417h-.94c0,.294,0,51.106,0,54.14l-35.3,20.382Z" transform="translate(-648.464 -985.681)" fill="#69c"/>
          </g>
          <g id="Group_10" data-name="Group 10" transform="translate(61.928 0)">
            <path id="Path_7" data-name="Path 7" d="M696.354,1052.833l22.352-12.905-16.34-9.433,20.275-11.707V945.526h-.94v72.72l-21.215,12.249,16.339,9.433-20.943,12.091Z" transform="translate(-695.883 -945.526)" fill="#69c"/>
          </g>
          <g id="Group_11" data-name="Group 11" transform="translate(16.821 11.069)">
            <path id="Path_8" data-name="Path 8" d="M556.989,1048.337l21.412-12.363,16.34,9.434,21.24-12.264-.027-.3c-.038-.595-.016-42.994,0-53.119l-.94,0c-.005,2.86-.044,49.845-.006,52.895l-20.269,11.7-16.34-9.434-21.882,12.634Z" transform="translate(-556.519 -979.725)" fill="#69c"/>
          </g>
          <g id="Group_12" data-name="Group 12" transform="translate(80.741 9.197)">
            <path id="Path_9" data-name="Path 9" d="M787.441,1067.64l.47-.814-32.025-18.49,18.9-10.915.235-.136V973.94h-.94v62.8l-19.375,11.187-.7.407Z" transform="translate(-754.007 -973.94)" fill="#69c"/>
          </g>
          <g id="Group_13" data-name="Group 13" transform="translate(1.978)">
            <path id="Path_10" data-name="Path 10" d="M511.13,1018.219l27.817-16.061,21.765,12.566,18.1-10.453V945.525h-.94v58.2l-17.165,9.911-21.765-12.566-28.287,16.332Z" transform="translate(-510.66 -945.525)" fill="#69c"/>
          </g>
          <ellipse id="Ellipse_4" data-name="Ellipse 4" cx="2.213" cy="1.278" rx="2.213" ry="1.278" transform="translate(0 71.009)" fill="#69c"/>
          <path id="Path_11" data-name="Path 11" d="M553.153,1186.88a3.456,3.456,0,0,0-3.128,0,.954.954,0,0,0,0,1.807,3.457,3.457,0,0,0,3.128,0A.954.954,0,0,0,553.153,1186.88Z" transform="translate(-534.867 -1108.509)" fill="#69c"/>
          <path id="Path_12" data-name="Path 12" d="M647.3,1212.936a3.458,3.458,0,0,0-3.129,0,.954.954,0,0,0,0,1.807,3.462,3.462,0,0,0,3.129,0A.954.954,0,0,0,647.3,1212.936Z" transform="translate(-598.541 -1126.131)" fill="#69c"/>
          <path id="Path_13" data-name="Path 13" d="M693.551,1272.234a3.458,3.458,0,0,0-3.129,0,.954.954,0,0,0,0,1.807,3.458,3.458,0,0,0,3.129,0A.954.954,0,0,0,693.551,1272.234Z" transform="translate(-629.823 -1166.237)" fill="#69c"/>
          <path id="Path_14" data-name="Path 14" d="M853.067,1258.6a3.455,3.455,0,0,0-3.129,0,.954.954,0,0,0,0,1.807,3.458,3.458,0,0,0,3.129,0A.954.954,0,0,0,853.067,1258.6Z" transform="translate(-737.71 -1157.019)" fill="#69c"/>
        </g>
      </g>
      <g id="Group_52" data-name="Group 52" transform="translate(112.531 42.397)">
        <path id="Path_15" data-name="Path 15" d="M769.647,1086.361c-.009,4.095-2.944,5.766-6.507,3.706l-50.433-29.117a.424.424,0,0,0,.109.306.408.408,0,0,0,.094.073l5.043,2.912,5.043,2.912,5.043,2.912,5.043,2.912,5.043,2.911,5.043,2.912,5.043,2.912,5.044,2.911,5.043,2.912,5.043,2.912h0a7.074,7.074,0,0,0,7.484,0c1.356-.788,2.2-2.457,2.206-4.824C771.745,1086.364,770.23,1086.7,769.647,1086.361Z" transform="translate(-706.016 -903.985)" fill="#cccbf6"/>
        <g id="Group_16" data-name="Group 16" transform="translate(0 145.397)">
          <path id="Path_16" data-name="Path 16" d="M698.927,1037.156a13.857,13.857,0,0,1-4.894-5.145,14.27,14.27,0,0,1-2-6.8.412.412,0,0,0,.228.372,14.3,14.3,0,0,0,6.464,11.2.405.405,0,0,0,.2.379Z" transform="translate(-692.033 -1025.21)" fill="#cccbf6"/>
        </g>
        <path id="Path_17" data-name="Path 17" d="M692.479,600.378a.4.4,0,0,1-.057-.211l-.039,13.757-.039,13.757-.039,13.757-.039,13.757-.039,13.757-.039,13.758-.039,13.757-.039,13.757-.039,13.757-.038,13.757a.394.394,0,0,0,.056.212.47.47,0,0,0,.172.161l.39-137.572A.47.47,0,0,1,692.479,600.378Z" transform="translate(-692.033 -592.342)" fill="#edecf8"/>
        <g id="Group_17" data-name="Group 17" transform="translate(0.389 0.896)">
          <path id="Path_18" data-name="Path 18" d="M693.236,585.687a7.038,7.038,0,0,1,3.709-6.418c1.373-.8,3.271-.691,5.358.514-1.286.748-2.331,1.9-2.333,2.566-3.563-2.059-6.5-.386-6.506,3.709a.412.412,0,0,1-.229-.372Z" transform="translate(-693.236 -578.757)" fill="#e3e2f2"/>
        </g>
        <path id="Path_19" data-name="Path 19" d="M889.509,714.542a2.087,2.087,0,0,1-.488-.127l-.39,137.572s.059.1.489.127a3.3,3.3,0,0,0,.832-.07l.389-137.571A3.271,3.271,0,0,1,889.509,714.542Z" transform="translate(-824.999 -669.612)" fill="#cccbf6"/>
        <g id="Group_18" data-name="Group 18" transform="translate(7.124 3.801)">
          <path id="Path_20" data-name="Path 20" d="M764.476,617.539l-50.432-29.117a1.391,1.391,0,0,1,.248-.687l50.433,29.117a1.4,1.4,0,0,0-.248.687Z" transform="translate(-714.043 -587.735)" fill="#cccbf6"/>
        </g>
        <g id="Group_19" data-name="Group 19" transform="translate(0.228 3.606)">
          <path id="Path_21" data-name="Path 21" d="M757.347,628.329a14.312,14.312,0,0,0-6.465-11.2l-50.432-29.117c-3.563-2.059-6.5-.386-6.506,3.71Z" transform="translate(-693.553 -587.132)" fill="#cccbf6"/>
          <path id="Path_22" data-name="Path 22" d="M693.126,601.317c-.13,45.747-.259,91.825-.389,137.572a14.3,14.3,0,0,0,6.464,11.2L749.633,779.2c3.563,2.06,6.5.389,6.507-3.706.13-45.747.259-91.825.389-137.572Z" transform="translate(-692.737 -596.726)" fill="url(#linear-gradient)"/>
        </g>
        <g id="Group_20" data-name="Group 20" transform="translate(57.556 31.039)">
          <path id="Path_23" data-name="Path 23" d="M869.86,674.455c0-.669,1.047-1.818,2.333-2.566a16.628,16.628,0,0,1,7.517,13.02c-1.286.747-2.8,1.081-3.384.744a14.311,14.311,0,0,0-6.466-11.2Z" transform="translate(-869.86 -671.889)" fill="#cccbf6"/>
        </g>
        <path id="Path_24" data-name="Path 24" d="M697.834,576.9c-.1.049-.207.1-.307.158l-.582.338c-.169.1-.391.244-.556.352l-.289.208c-.1.073-.222.176-.317.251l-.265.232c-.093.085-.211.2-.3.291l-.242.259c-.09.1-.2.246-.292.352l-.217.294c-.093.136-.208.322-.295.462l-.189.349c-.1.214-.223.5-.31.722l-.142.439a8.165,8.165,0,0,0-.3,2.205.4.4,0,0,0,.057.212c.095-4.306,2.942-6.047,6.925-4.235a6.279,6.279,0,0,1,2.085-1.881l.583-.338c.946-.55,1.76-.729,2.124-.519A7.039,7.039,0,0,0,697.834,576.9Z" transform="translate(-692.847 -575.99)" fill="#edecf8"/>
        <path id="Path_25" data-name="Path 25" d="M767.51,606.76l-2.522-1.456-5.043-2.912-5.043-2.912-5.043-2.912-5.044-2.912-5.043-2.911-5.043-2.912-5.043-2.912-5.043-2.912L719.6,579.1c-.364-.21-1.177-.031-2.124.52l-.583.338a6.284,6.284,0,0,0-2.085,1.88l50.433,29.117a6.287,6.287,0,0,1,2.084-1.879l.582-.339c.947-.55,1.76-.729,2.123-.52Z" transform="translate(-707.437 -578.035)" fill="#e3e2f2"/>
        <path id="Path_26" data-name="Path 26" d="M880.309,674.207a13.708,13.708,0,0,0-4.894-5.147c-.363-.209-1.177-.03-2.124.52l-.582.339a6.287,6.287,0,0,0-2.086,1.881c4.07,1.938,7.33,6.695,7.541,10.857.011.219,0,1.084,0,1.084a7.121,7.121,0,0,0,2.064-.8l.582-.339c.943-.548,1.5-1.167,1.5-1.656A13.768,13.768,0,0,0,880.309,674.207Z" transform="translate(-812.82 -638.879)" fill="#bfbeed"/>
        <path id="Path_27" data-name="Path 27" d="M895.748,707.645a19.77,19.77,0,0,1-2.646,1.14l-.389,137.571a6.957,6.957,0,0,0,2.063-.8l.582-.338c.943-.548,1.5-1.167,1.5-1.59l.02-6.879.02-6.879.019-6.878.019-6.879.02-6.879.02-6.878.019-6.879.019-6.879.02-6.879.019-6.879.02-6.879.019-6.879.02-6.879.019-6.879.019-6.879.019-6.879.02-6.879.019-6.879.019-6.878.019-6.927C897.25,706.43,896.692,707.1,895.748,707.645Z" transform="translate(-827.76 -663.924)" fill="#98a4e0"/>
        <path id="Path_28" data-name="Path 28" d="M879.227,1132.791l-.582.338a6.934,6.934,0,0,1-2.066.8c-.354,4.511-3.672,6.211-7.717,3.955a.411.411,0,0,0,.094.073,9.548,9.548,0,0,0,1.573.715l.524.153c.235.052.551.11.789.148l.454.042c.164.007.383.007.547.008l.4-.023c.135-.013.314-.037.449-.054l.367-.067c.121-.026.281-.067.4-.1l.346-.1c.114-.036.264-.091.377-.131l.332-.134a9.2,9.2,0,0,0,.922-.463l.582-.338a7.129,7.129,0,0,0,3.708-6.415C880.729,1131.623,880.171,1132.242,879.227,1132.791Z" transform="translate(-811.629 -951.498)" fill="#98a4e0"/>
        <g id="Group_34" data-name="Group 34" transform="translate(65.704 52.307)">
          <g id="Group_33" data-name="Group 33">
            <g id="Group_23" data-name="Group 23" transform="translate(0.019 10.601)">
              <path id="SVGID-21" data-name="SVGID" d="M895.955,771.388l-.533-.31a.791.791,0,0,1-.332-.725l.533.31A.791.791,0,0,0,895.955,771.388Z" transform="translate(-895.09 -770.353)" fill="#e3e2f2"/>
              <g id="Group_22" data-name="Group 22" clip-path="url(#clip-path)">
                <g id="Group_21" data-name="Group 21">
                  <path id="Path_29" data-name="Path 29" d="M896.345,772.648l-.533-.31a.557.557,0,0,1-.145-.121l.533.31a.56.56,0,0,0,.145.121Z" transform="translate(-895.48 -771.614)" fill="#e3e2f2"/>
                  <path id="Path_30" data-name="Path 30" d="M895.81,771.266l-.533-.31a.918.918,0,0,1-.187-.6l.533.31a.918.918,0,0,0,.187.6Z" transform="translate(-895.09 -770.353)" fill="#e3e2f2"/>
                </g>
              </g>
            </g>
            <g id="Group_26" data-name="Group 26" transform="translate(2.204)">
              <path id="SVGID-22" data-name="SVGID" d="M902.646,737.676l.533.31a.8.8,0,0,0-.8.077l-.533-.31A.8.8,0,0,1,902.646,737.676Z" transform="translate(-901.842 -737.599)" fill="#edecf8"/>
              <g id="Group_25" data-name="Group 25" clip-path="url(#clip-path-2)">
                <g id="Group_24" data-name="Group 24">
                  <path id="Path_31" data-name="Path 31" d="M902.375,738.063l-.533-.31a.8.8,0,0,1,.8-.077l.533.31a.8.8,0,0,0-.8.077Z" transform="translate(-901.842 -737.599)" fill="#edecf8"/>
                </g>
              </g>
            </g>
            <g id="Group_27" data-name="Group 27" transform="translate(0 2.729)">
              <path id="Path_32" data-name="Path 32" d="M895.584,754.213l-.533-.31-.019-7.872.533.31Z" transform="translate(-895.033 -746.031)" fill="#e3e2f2"/>
            </g>
            <g id="Group_28" data-name="Group 28" transform="translate(1.129 0.154)">
              <path id="Path_33" data-name="Path 33" d="M899.054,739.005l-.533-.31,1.075-.62.533.31Z" transform="translate(-898.521 -738.075)" fill="#edecf8"/>
            </g>
            <g id="Group_31" data-name="Group 31" transform="translate(0 0.774)">
              <path id="SVGID-23" data-name="SVGID" d="M895.565,742.256l-.533-.309a2.5,2.5,0,0,1,1.129-1.955l.533.31A2.5,2.5,0,0,0,895.565,742.256Z" transform="translate(-895.032 -739.992)" fill="#edecf8"/>
              <g id="Group_30" data-name="Group 30" clip-path="url(#clip-path-3)">
                <g id="Group_29" data-name="Group 29">
                  <path id="Path_34" data-name="Path 34" d="M895.565,743.447l-.533-.309a2.436,2.436,0,0,1,.511-1.385l.533.31a2.434,2.434,0,0,0-.511,1.384Z" transform="translate(-895.032 -741.183)" fill="#edecf8"/>
                  <path id="Path_35" data-name="Path 35" d="M897.144,740.872l-.533-.31a2.134,2.134,0,0,1,.618-.57l.533.31a2.13,2.13,0,0,0-.618.57Z" transform="translate(-896.1 -739.992)" fill="#edecf8"/>
                </g>
              </g>
            </g>
            <g id="Group_32" data-name="Group 32" transform="translate(0.533 0.31)">
              <path id="Path_36" data-name="Path 36" d="M898.883,738.71c.623-.359,1.133-.069,1.135.647l.019,7.872a2.5,2.5,0,0,1-1.129,1.955l-1.074.621c-.623.36-1.134.068-1.137-.648l-.018-7.872a2.5,2.5,0,0,1,1.129-1.954Z" transform="translate(-896.679 -738.556)" fill="#cccbf6"/>
            </g>
          </g>
        </g>
        <g id="Group_48" data-name="Group 48" transform="translate(65.704 65.315)">
          <g id="Group_47" data-name="Group 47">
            <g id="Group_37" data-name="Group 37" transform="translate(0.019 6.391)">
              <path id="SVGID-24" data-name="SVGID" d="M895.955,798.566l-.533-.31a.79.79,0,0,1-.332-.725l.533.31A.79.79,0,0,0,895.955,798.566Z" transform="translate(-895.09 -797.532)" fill="#e3e2f2"/>
              <g id="Group_36" data-name="Group 36" clip-path="url(#clip-path-4)">
                <g id="Group_35" data-name="Group 35">
                  <path id="Path_37" data-name="Path 37" d="M896.345,799.829l-.533-.31a.56.56,0,0,1-.145-.121l.533.309a.555.555,0,0,0,.145.121Z" transform="translate(-895.48 -798.794)" fill="#e3e2f2"/>
                  <path id="Path_38" data-name="Path 38" d="M895.81,798.445l-.533-.309a.922.922,0,0,1-.187-.6l.533.31a.917.917,0,0,0,.187.6Z" transform="translate(-895.09 -797.532)" fill="#e3e2f2"/>
                </g>
              </g>
            </g>
            <g id="Group_40" data-name="Group 40" transform="translate(2.204)">
              <path id="SVGID-25" data-name="SVGID" d="M902.646,777.864l.533.309a.8.8,0,0,0-.8.077l-.533-.309A.8.8,0,0,1,902.646,777.864Z" transform="translate(-901.842 -777.787)" fill="#edecf8"/>
              <g id="Group_39" data-name="Group 39" clip-path="url(#clip-path-5)">
                <g id="Group_38" data-name="Group 38">
                  <path id="Path_39" data-name="Path 39" d="M902.375,778.251l-.533-.309a.8.8,0,0,1,.8-.077l.533.309a.8.8,0,0,0-.8.077Z" transform="translate(-901.842 -777.787)" fill="#edecf8"/>
                </g>
              </g>
            </g>
            <g id="Group_41" data-name="Group 41" transform="translate(0 2.729)">
              <path id="Path_40" data-name="Path 40" d="M895.584,790.191l-.533-.31-.019-3.662.533.31Z" transform="translate(-895.033 -786.219)" fill="#e3e2f2"/>
            </g>
            <g id="Group_42" data-name="Group 42" transform="translate(1.129 0.154)">
              <path id="Path_41" data-name="Path 41" d="M899.054,779.194l-.533-.31,1.075-.62.533.31Z" transform="translate(-898.521 -778.264)" fill="#edecf8"/>
            </g>
            <g id="Group_45" data-name="Group 45" transform="translate(0 0.775)">
              <path id="SVGID-26" data-name="SVGID" d="M895.565,782.445l-.533-.309a2.5,2.5,0,0,1,1.129-1.954l.533.31A2.5,2.5,0,0,0,895.565,782.445Z" transform="translate(-895.032 -780.181)" fill="#edecf8"/>
              <g id="Group_44" data-name="Group 44" clip-path="url(#clip-path-6)">
                <g id="Group_43" data-name="Group 43">
                  <path id="Path_42" data-name="Path 42" d="M895.565,783.636l-.533-.309a2.435,2.435,0,0,1,.511-1.384l.533.309a2.435,2.435,0,0,0-.511,1.384Z" transform="translate(-895.032 -781.372)" fill="#edecf8"/>
                  <path id="Path_43" data-name="Path 43" d="M897.144,781.061l-.533-.309a2.124,2.124,0,0,1,.618-.57l.533.31a2.128,2.128,0,0,0-.618.57Z" transform="translate(-896.1 -780.181)" fill="#edecf8"/>
                </g>
              </g>
            </g>
            <g id="Group_46" data-name="Group 46" transform="translate(0.533 0.31)">
              <path id="Path_44" data-name="Path 44" d="M898.883,778.9c.623-.359,1.133-.069,1.135.647l.019,3.662a2.5,2.5,0,0,1-1.129,1.955l-1.074.62c-.623.36-1.134.068-1.137-.647l-.018-3.662a2.5,2.5,0,0,1,1.129-1.954Z" transform="translate(-896.679 -778.744)" fill="#cccbf6"/>
            </g>
          </g>
        </g>
        <path id="Path_45" data-name="Path 45" d="M832.609,666.17a4.752,4.752,0,0,0,2.149,3.723c1.187.685,2.149.13,2.149-1.242a4.751,4.751,0,0,0-2.149-3.723C833.571,664.244,832.609,664.8,832.609,666.17Z" transform="translate(-787.11 -635.944)" fill="#0b1b38"/>
        <path id="Path_46" data-name="Path 46" d="M850.758,677.953a3.025,3.025,0,0,0,1.368,2.37c.756.436,1.368.082,1.368-.79a3.023,3.023,0,0,0-1.368-2.37C851.371,676.727,850.758,677.081,850.758,677.953Z" transform="translate(-799.384 -644.291)" fill="#0b1b38"/>
        <path id="Path_47" data-name="Path 47" d="M786.432,642.269l-4.314-2.491a3.412,3.412,0,0,1-1.538-2.665h0c0-.977.692-1.377,1.538-.889l4.315,2.491a3.415,3.415,0,0,1,1.539,2.665h0C787.971,642.358,787.278,642.758,786.432,642.269Z" transform="translate(-751.92 -616.588)" fill="#0b1b38"/>
        <g id="Group_49" data-name="Group 49" transform="translate(12.846 4.017)">
          <path id="Path_48" data-name="Path 48" d="M735.029,589.819a1.153,1.153,0,0,1-.35.29,2.686,2.686,0,0,1-2.446,0,1.2,1.2,0,0,1-.35-.29c-.3-.369-.181-.821.35-1.123a2.685,2.685,0,0,1,2.446,0C735.21,589,735.328,589.45,735.029,589.819Z" transform="translate(-731.723 -588.401)" fill="#4f389e"/>
          <path id="Path_49" data-name="Path 49" d="M735.365,591.567a1.153,1.153,0,0,1-.35.29,2.687,2.687,0,0,1-2.446,0,1.2,1.2,0,0,1-.35-.29,1.189,1.189,0,0,1,.35-.287,2.685,2.685,0,0,1,2.446,0A1.19,1.19,0,0,1,735.365,591.567Z" transform="translate(-732.059 -590.149)" fill="#1f0159"/>
        </g>
        <g id="Group_50" data-name="Group 50" transform="translate(56.146 28.773)">
          <path id="Path_50" data-name="Path 50" d="M868.078,665.99a.892.892,0,0,1-.273.226,2.093,2.093,0,0,1-1.905,0,.928.928,0,0,1-.272-.226c-.232-.288-.14-.639.272-.875a2.094,2.094,0,0,1,1.905,0C868.219,665.351,868.311,665.7,868.078,665.99Z" transform="translate(-865.503 -664.886)" fill="#4f389e"/>
          <path id="Path_51" data-name="Path 51" d="M868.339,667.351a.892.892,0,0,1-.273.226,2.093,2.093,0,0,1-1.905,0,.229.229,0,1,1,0-.45,2.093,2.093,0,0,1,1.905,0A.93.93,0,0,1,868.339,667.351Z" transform="translate(-865.764 -666.247)" fill="#1f0159"/>
        </g>
        <g id="Group_51" data-name="Group 51" transform="translate(16.986 6.489)">
          <path id="Path_52" data-name="Path 52" d="M751.659,599.523l-.346.2-.765.44a.827.827,0,0,1-.754,0l-4.779-2.757-.345-.2a.23.23,0,0,1,0-.436l1.111-.644a.846.846,0,0,1,.754,0l5.124,2.96A.23.23,0,0,1,751.659,599.523Z" transform="translate(-744.513 -596.038)" fill="#4f389e"/>
          <path id="Path_53" data-name="Path 53" d="M752.361,601.472l-.765.44a.827.827,0,0,1-.754,0l-4.779-2.757.765-.444a.849.849,0,0,1,.754,0Z" transform="translate(-745.561 -597.786)" fill="#1f0159"/>
        </g>
      </g>
      <g id="Group_56" data-name="Group 56" transform="translate(35.958 156.259)">
        <g id="Group_53" data-name="Group 53" transform="translate(2.045 19.97)">
          <path id="Path_54" data-name="Path 54" d="M469.912,1007.708q-.034-.746-.087-1.493c-.1-1.419.094-2.916.113-4.353.033-2.585.278-4.934.085-7.518-.106-1.422.04-3.729-1.647-4.58a2.791,2.791,0,0,0-2.04-.163,6.856,6.856,0,0,0-3.37,3.158,8.455,8.455,0,0,0-1.133,3.492,35.647,35.647,0,0,0,.544,7.478,38.423,38.423,0,0,0,1.567,8.13,4.638,4.638,0,0,0,1.811,2.134,2.676,2.676,0,0,0,3.092.307,3.484,3.484,0,0,0,1.077-2.817C469.983,1010.223,469.97,1008.966,469.912,1007.708Z" transform="translate(-461.77 -989.48)" fill="#f1f1f1"/>
        </g>
        <g id="Group_54" data-name="Group 54" transform="translate(3.41 36.609)">
          <path id="Path_55" data-name="Path 55" d="M475.009,1059.119q-.034-.746-.087-1.493c-.1-1.419.094-2.916.113-4.352.033-2.586.278-4.935.085-7.518-.106-1.422.041-3.729-1.647-4.58a2.79,2.79,0,0,0-2.04-.163,6.859,6.859,0,0,0-3.37,3.159c-.638,1.07-2.147-1.744-2.074-.513.2,3.393,1.2,9.092,1.486,11.482a38.476,38.476,0,0,0,1.567,8.13,4.641,4.641,0,0,0,1.811,2.134,2.675,2.675,0,0,0,3.091.306,3.482,3.482,0,0,0,1.077-2.817C475.081,1061.633,475.067,1060.376,475.009,1059.119Z" transform="translate(-465.986 -1040.891)" fill="#f1f1f1"/>
        </g>
        <path id="Path_56" data-name="Path 56" d="M475.335,1285.9a4.958,4.958,0,0,0,.225,1.578,6.047,6.047,0,0,1,.107.935,1.33,1.33,0,0,0,.272.773,1.026,1.026,0,0,0,.6.339,4.832,4.832,0,0,0,1.365.057c.366,0,.685-.036.789-.44a5.678,5.678,0,0,0-.013-1.39,3.564,3.564,0,0,0,0-1.064c-.2-.511-1.27-.771-1.721-.965-.283-.122-.887-.144-1.061-.413C475.623,1284.887,475.379,1285.609,475.335,1285.9Z" transform="translate(-468.889 -1169.503)" fill="#272e67"/>
        <path id="Path_57" data-name="Path 57" d="M478.857,1203.92a5.835,5.835,0,0,0,.151.694,10.271,10.271,0,0,0,.9,2.175,1.268,1.268,0,0,0,.495.606,7.638,7.638,0,0,0,.938.294c.171.057.351.22.527.262a1.516,1.516,0,0,1,.419.123,4.217,4.217,0,0,0,.4.134.794.794,0,0,1,.529.559,2.314,2.314,0,0,1-.011.57.594.594,0,0,1-.262.552,2.4,2.4,0,0,1-1.093.737,3.979,3.979,0,0,1-.523-.006,6.775,6.775,0,0,1-3.455-1.141,31.819,31.819,0,0,1-3.215-1.845c-.306-.221-.667-.351-.963-.573-.155-.116-.159-.114-.165-.313a2,2,0,0,1,.279-.823,2.843,2.843,0,0,0,.315-1.4,10.815,10.815,0,0,0-.077-1.771,13.76,13.76,0,0,0-.773-2.722c-.18-.455-.41-.877-.575-1.343-.212-.6-.5-1.2-.674-1.807a15.213,15.213,0,0,1-.423-2.022,20.145,20.145,0,0,1-.133-4.083,46.808,46.808,0,0,1,1.147-7.064,6.677,6.677,0,0,0,.276-1.8c-.024-.392-.195-.751-.226-1.141-.1-1.233.536-2.456.614-3.68a4.88,4.88,0,0,1,.458-2.377,3.154,3.154,0,0,1,3.97-.775,6.751,6.751,0,0,1,2.6,2.27,6.926,6.926,0,0,1,.725,3.35,32.678,32.678,0,0,1-.025,3.994c-.215,3.186-.888,6.314-1.366,9.465-.171,1.118-.289,2.242-.432,3.364-.129,1-.339,2.017-.419,3.035-.059.75-.04,1.5-.04,2.255A14.671,14.671,0,0,0,478.857,1203.92Z" transform="translate(-466.255 -1094.015)" fill="#f3a984"/>
        <path id="Path_58" data-name="Path 58" d="M474.922,1275.068a1.176,1.176,0,0,0-.268.279,5.086,5.086,0,0,0-.738,2.06,2.564,2.564,0,0,0,.654,2.286,2.457,2.457,0,0,0,1.575.712,8.119,8.119,0,0,0,2.207-.412,4.542,4.542,0,0,1,2.008.021c.292.07.569.111.857.207a3.821,3.821,0,0,0,.98.233,4.8,4.8,0,0,0,2.072-.486,2.242,2.242,0,0,0,1.111-1.143,3.405,3.405,0,0,0,.41-1.765,1.405,1.405,0,0,0-.1-.4,1.765,1.765,0,0,0-.255-.5,2.212,2.212,0,0,0-2.024-.463,6.287,6.287,0,0,0-1.318.266c.423.188.888.149.981.643.271,1.43-1.719,1.539-2.593,1.383a7.567,7.567,0,0,1-2.682-1.116,19.657,19.657,0,0,1-1.688-1.6C475.7,1274.935,475.285,1274.807,474.922,1275.068Z" transform="translate(-467.911 -1162.569)" fill="#323974"/>
        <path id="Path_59" data-name="Path 59" d="M508.008,1229.782a21.053,21.053,0,0,1-2.1-2.99c-.632-1.066-.268-2.744-.116-3.889.371-2.8.8-5.577,1.355-8.348a37.587,37.587,0,0,0,.787-5.713,75.133,75.133,0,0,1,.307-8.055,14.452,14.452,0,0,0-.041-2.524c-.014-.651.053-1.306.083-1.957a11.1,11.1,0,0,1,.056-1.939l-6.444,3.655c-.757.193-1.172,1.025-1.447,1.784a22.778,22.778,0,0,0-1.24,6.58,32.959,32.959,0,0,0-.019,6.5c.279,1.921.6,3.835.925,5.749a20.388,20.388,0,0,1,.578,5.515,6.838,6.838,0,0,1-.66,2.435c-.158.3-.5.548-.589.861.644.163,1.013.746,1.521,1.115a17.5,17.5,0,0,0,1.665.8,7.552,7.552,0,0,1,1.153.875c.313.273.7.519.979.816a12.944,12.944,0,0,0,.891,1.009,4.873,4.873,0,0,0,1.132.73,2.009,2.009,0,0,0,1.811.09,1.334,1.334,0,0,0,.525-1.553A4.317,4.317,0,0,0,508.008,1229.782Z" transform="translate(-484.926 -1108.083)" fill="#ffc7ad"/>
        <path id="Path_60" data-name="Path 60" d="M497.325,1305.01c.056,1.279.02,2.585.131,3.86.043.5,0,.669.527.864.781.29,2.139.39,2.643-.435.37-.605.169-1.649.207-2.332a5.031,5.031,0,0,0,.089-1.6c-.164-.459-1.037-.319-1.535-.439a5.729,5.729,0,0,0-1.176-.265A1.542,1.542,0,0,0,497.325,1305.01Z" transform="translate(-483.772 -1182.678)" fill="#272e67"/>
        <path id="Path_61" data-name="Path 61" d="M499.538,1295.949a4.239,4.239,0,0,0-.475-.3,2.592,2.592,0,0,0-.474-.2,1.069,1.069,0,0,0-.481-.064,1.31,1.31,0,0,0-.771.548,6,6,0,0,0-.762,1.8,4.757,4.757,0,0,0,.025,2.223,1.928,1.928,0,0,0,1.5,1.271,5.534,5.534,0,0,0,1.578-.007,4.464,4.464,0,0,1,2,.184,3.687,3.687,0,0,1,.374.157,10.717,10.717,0,0,0,1.156.479,9.753,9.753,0,0,0,1.076.388,4.933,4.933,0,0,0,3.067-.39,3.986,3.986,0,0,0,1.2-.709,2.942,2.942,0,0,0,.82-1.346,2.37,2.37,0,0,0-.193-1.931,1.744,1.744,0,0,0-1.489-.636,6.474,6.474,0,0,0-.816.166,5.177,5.177,0,0,0-.865.233c.2.464.65.81.832,1.309a.938.938,0,0,1-.277.98c-.228.257-.739.23-1.056.188a9.408,9.408,0,0,1-2.429-1.2c-.553-.49-1.084-.974-1.59-1.514A13.06,13.06,0,0,0,499.538,1295.949Z" transform="translate(-483.184 -1176.395)" fill="#323974"/>
        <path id="Path_62" data-name="Path 62" d="M476.13,995.9a2.193,2.193,0,0,0,.332,2.537,5.217,5.217,0,0,0,2.4,1.71,9.608,9.608,0,0,0,7.563-.413,3.084,3.084,0,0,1,.748-.309.856.856,0,0,1,.762.171c.036-.6-.493-1.071-.94-1.381a2.572,2.572,0,0,0-1.709-.241,14.294,14.294,0,0,1-3.86-.195,8.06,8.06,0,0,1-3.108-1.324c-.4-.292-.819-.529-.973-1.038-.015-.049-.124-.591-.029-.614A1.893,1.893,0,0,0,476.13,995.9Z" transform="translate(-469.263 -973.115)" fill="#fff8f5"/>
        <path id="Path_63" data-name="Path 63" d="M459.66,999.426a25.063,25.063,0,0,1-1.318-7.756c-.021-2.015-.582-5.008,1.774-6.125a5.066,5.066,0,0,1,4.22.4c.376.211,1.853.911,2.2,1.056,2.07.869,4.089,1.859,6.089,2.879,1.113.566,2.278,1.045,3.411,1.57a11.784,11.784,0,0,1,4.122,3.237,11.091,11.091,0,0,1,2.363,3.849,12.455,12.455,0,0,1,.422,4.761c-.083,1.229-2.638,9.491-.857,15.107.581,1.829.546,2.829-1.139,4.383-.879.809-1.983.421-3.027.316-1.121-.113-2.145.217-3.3.155-3.055-.163-6.595-.41-9.3-1.979a3.479,3.479,0,0,1-2-2.79,3.313,3.313,0,0,1,.92-2.167,5,5,0,0,0,.366-3.744,26.51,26.51,0,0,0-.932-3.464q-.663-1.991-1.511-3.914c-.717-1.631-1.533-3.221-2.169-4.885Q459.812,999.876,459.66,999.426Z" transform="translate(-457.357 -966.644)" fill="#e1def8"/>
        <path id="Path_64" data-name="Path 64" d="M473.936,982.648c-.195.149-.026.513.049.781A4.624,4.624,0,0,1,474,985.3a4.847,4.847,0,0,0-.149.784,1.883,1.883,0,0,0,.275.826c.656,1.158,2.242,1.5,3.425,1.82a9.057,9.057,0,0,0,2.962.333,3.131,3.131,0,0,0,1.3-.316,2.954,2.954,0,0,0,.376-.241c.444-.363.362-1.1.408-1.6a5.78,5.78,0,0,1,.3-1.526,2.71,2.71,0,0,1,.915-1.1s-4.024-.678-5.981-1.03l-3.194-.576a2.5,2.5,0,0,0-.467-.083A.392.392,0,0,0,473.936,982.648Z" transform="translate(-467.892 -964.845)" fill="#ffc7ad"/>
        <path id="Path_65" data-name="Path 65" d="M479.494,939.732a4.476,4.476,0,0,1,1.267,2.062c.395,1.546-.016,3.157.309,4.7.286,1.357-.354,3.121-.6,4.491a3.254,3.254,0,0,1-1.108,2.3c-.443.286-1.009.342-1.43.657-.258.193-.752.4-.989.615a3.631,3.631,0,0,1-2.671.509,9.214,9.214,0,0,1-2.666-.4,9.067,9.067,0,0,1-3.772-3.263c-8.516-10.894,6.072-17.216,11.659-11.67Z" transform="translate(-462.063 -934.479)" fill="#ffc7ad"/>
        <path id="Path_66" data-name="Path 66" d="M462.275,932.649c2.888-4.988,9.857-6.623,14.293-2.621,2.024,1.825,2.538,4.288.831,6.4a4.84,4.84,0,0,0-.883,1.631c-.186.518-.016,1.037-.534,1.418-.9.658-1.523-.477-2.454.075-1.887,1.12-.317,4.454-1.7,5.992s-4.542,1.362-6.249.53C461.022,943.858,459.935,936.691,462.275,932.649Z" transform="translate(-459.257 -927.782)" fill="#4f389e"/>
        <path id="Path_67" data-name="Path 67" d="M495.437,961.554c-1.411.135-1.481,1.926-.3,3.108a7,7,0,0,0,1.313.86c2.851,1.719,3.1-.688,2.187-1.283-2.123-1.381-1.421-2.855-3.2-2.685Z" transform="translate(-481.733 -950.614)" fill="#ffc7ad"/>
        <path id="Path_68" data-name="Path 68" d="M497.824,965.924c-.184-.12-1.929-.8-.951-1.616a.486.486,0,0,1,.746.292c.051.161.028.339.079.5a.761.761,0,0,0,.153.256c.179.207.7.349.658.7-.035.312-.58-.062-.686-.13Z" transform="translate(-483.266 -952.421)" fill="#f3a984"/>
        <path id="Path_69" data-name="Path 69" d="M456.487,982.678c.261.821,1.009,1.432,1.09,2.323a17,17,0,0,0,.16,1.8,2.053,2.053,0,0,0,.44.98c.151.175.343.309.5.474a2.213,2.213,0,0,1,.344.55,3.006,3.006,0,0,1,.378,1.381c-.005.532-.407,1.027-.987.821-.149-.053-.651-.332-.555-.579.026-.068.122-.034.157-.092a.244.244,0,0,0-.132-.348c-.339-.1-.365.378-.352.589a1.731,1.731,0,0,0,2.581,1.336,5.573,5.573,0,0,0,1.908-2.1,3.171,3.171,0,0,0,.557-1.751,4.417,4.417,0,0,0-.074-.869,5.582,5.582,0,0,0-.4-1.186c-.482-1.09-1.638-1.347-2.392-2.153a3.781,3.781,0,0,1-.467-.605,2.235,2.235,0,0,1-.137-2.1c.37-.7,1.157-1.051,1.581-1.712a2.624,2.624,0,0,0-.294-2.585,3.845,3.845,0,0,1-.751-2.568c.271-1.185,1.722-1.821,1.968-3.012.193-.939-.434-1.83-.685-2.754a3.641,3.641,0,0,1,.548-3.037,4.224,4.224,0,0,0,.963-1.526c.2-1.071-.918-2.006-.879-3.1.027-.847.733-1.487,1.3-2.114a2.332,2.332,0,0,0,.732-1.8,3.957,3.957,0,0,0-.61-1.665c-1.05-1.371-3.589-2.2-4.875-.7a2.382,2.382,0,0,0-.586,2.278,4.1,4.1,0,0,1-.242,2.955,11.926,11.926,0,0,0-1.483,2.625,5.64,5.64,0,0,0-.131,2.084,4.5,4.5,0,0,0,.656,1.344,4.086,4.086,0,0,1,.5,1.949c-.064,1.423-1.252,2.6-1.355,4.017a5.006,5.006,0,0,0,.881,2.754c.183.322.352.673.562.978a1.927,1.927,0,0,1,.4.827,4.012,4.012,0,0,1-.827,2.41,3.818,3.818,0,0,0-.414,1.466,4.445,4.445,0,0,0,.165,1.492c.066.248.16.487.212.738A1.959,1.959,0,0,0,456.487,982.678Z" transform="translate(-455.452 -945.36)" fill="#1f0159"/>
        <path id="Path_70" data-name="Path 70" d="M489.5,1097.539a47.024,47.024,0,0,0-2.309-18.393s-10.224,4.244-16.951-.5a27.689,27.689,0,0,0-2.036,4.024,23.789,23.789,0,0,0-1.565,7.944,109.023,109.023,0,0,0,.512,13.72c.352,4.624.283,18.259,1.675,18.587a32.027,32.027,0,0,0,4.575.172s1.041-6.577,1.32-7.272a41.7,41.7,0,0,1,.317,5.364,10.329,10.329,0,0,0,.2,1.7c.158.609.59.757,1.19.848s5.376.958,9,.032a1.89,1.89,0,0,0,1.507-1.717C487.09,1121.094,489.289,1101.132,489.5,1097.539Z" transform="translate(-462.969 -1029.814)" fill="#ffb700"/>
        <path id="Path_71" data-name="Path 71" d="M494.051,1080.417c-.255-.827-.43-1.271-.43-1.271s-10.224,4.244-16.951-.5a9.492,9.492,0,0,0-.595.985C480.626,1084.25,489.546,1082.758,494.051,1080.417Z" transform="translate(-469.399 -1029.814)" fill="#ffa200"/>
        <path id="Path_72" data-name="Path 72" d="M462.162,1043.849a2.005,2.005,0,0,1-1.564.7.448.448,0,0,0-.119.875,2.424,2.424,0,0,0,2.337-.915C463.235,1044.076,462.562,1043.408,462.162,1043.849Z" transform="translate(-458.637 -1006.184)" fill="#ffb700"/>
        <path id="Path_73" data-name="Path 73" d="M533.311,1117.237a1.191,1.191,0,0,1,.695.434,3.161,3.161,0,0,1,.237.659,12.2,12.2,0,0,0,.736,1.37.892.892,0,0,1,.1.4.873.873,0,0,1-.178.51.579.579,0,0,1-.557.232c-.615-.1-.844-.85-1.253-1.308a2.4,2.4,0,0,0-.392,1.493,2.83,2.83,0,0,0,.387,1.1l.6,1.141a.527.527,0,0,1,.076.379c-.136.658-.654.357-.91.681-.22.279-.124.577-.289.869a.538.538,0,0,1-.567.31c-.232-.083-.3-.467-.44-.685a1.115,1.115,0,0,1-.029.316.577.577,0,0,1-.188.3c-.248.18-.347-.061-.525-.07s-.426.222-.63.205a.709.709,0,0,1-.485-.367,5.768,5.768,0,0,1-.612-1.133,4.479,4.479,0,0,1-.214-1.421c.018-.893.177-1.823.243-2.73a2.87,2.87,0,0,0-.253-1.082l-.365-1.225a1.07,1.07,0,0,1-.044-.607,2.114,2.114,0,0,1,.841-1.029l1.4-1.065c.276-.21.585-.43.81-.373.249.063.288.432.343.744A2.38,2.38,0,0,0,533.311,1117.237Z" transform="translate(-504.81 -1054.086)" fill="#ffc7ad"/>
        <g id="Group_55" data-name="Group 55" transform="translate(16.908 27.725)">
          <path id="Path_74" data-name="Path 74" d="M516.2,1031.56c-.041-.5-.089-.993-.141-1.49-.15-1.414-.011-2.917-.044-4.354-.061-2.585.1-4.942-.186-7.516-.158-1.418-.094-3.728-1.812-4.517a2.794,2.794,0,0,0-2.045-.09,6.863,6.863,0,0,0-3.254,3.278,8.453,8.453,0,0,0-1.006,3.531,35.668,35.668,0,0,0,.814,7.453,38.44,38.44,0,0,0,1.859,8.069,4.639,4.639,0,0,0,1.888,2.067,2.675,2.675,0,0,0,3.1.2,3.487,3.487,0,0,0,.975-2.854C516.366,1034.07,516.307,1032.814,516.2,1031.56Z" transform="translate(-507.692 -1013.441)" fill="#f1f1f1"/>
        </g>
        <path id="Path_75" data-name="Path 75" d="M520.413,1083.314a3.356,3.356,0,0,1-2.154.039,3.141,3.141,0,0,1-1.2-1.553c-.382-.793-.7-1.628-1.008-2.452a63.791,63.791,0,0,1-2.026-7.36c-.509-2.066-.975-4.149-1.348-6.243-.036-.2-.07-.4-.1-.6-.122-.783,1.827.146,2.656-.013,1.479-.281,2.354-3.754,3.34-2.588s1.947,6.295,2.217,7.683c.657,3.385.786,6.868,1.662,10.2a1.815,1.815,0,0,1-1.1,2.55A7.259,7.259,0,0,1,520.413,1083.314Z" transform="translate(-494.081 -1018.766)" fill="#f1f1f1"/>
      </g>
      <g id="Group_76" data-name="Group 76" transform="translate(65.712 40.17)">
        <g id="Group_74" data-name="Group 74">
          <g id="Group_57" data-name="Group 57" transform="translate(18.867 32.295)">
            <path id="Path_76" data-name="Path 76" d="M605.67,670.177l2.214-1.286.272.492-2.214,1.287Z" transform="translate(-605.67 -668.891)" fill="#e82e4a"/>
          </g>
          <g id="Group_60" data-name="Group 60" transform="translate(1.162)">
            <path id="SVGID-27" data-name="SVGID" d="M550.97,570.658l2.214-1.287a2.7,2.7,0,0,1,2.725.262l-2.214,1.286A2.7,2.7,0,0,0,550.97,570.658Z" transform="translate(-550.97 -569.111)" fill="#e82e4a"/>
            <g id="Group_59" data-name="Group 59" clip-path="url(#clip-path-7)">
              <g id="Group_58" data-name="Group 58">
                <path id="Path_77" data-name="Path 77" d="M550.97,570.658l2.214-1.287a2.7,2.7,0,0,1,2.725.262l-2.214,1.286a2.7,2.7,0,0,0-2.725-.261Z" transform="translate(-550.97 -569.111)" fill="#e82e4a"/>
              </g>
            </g>
          </g>
          <g id="Group_61" data-name="Group 61" transform="translate(27.531 37.813)">
            <path id="Path_78" data-name="Path 78" d="M632.754,687.226l2.214-1.287-.313,10.135-2.214,1.287Z" transform="translate(-632.441 -685.939)" fill="#e82e4a"/>
          </g>
          <g id="Group_62" data-name="Group 62" transform="translate(18.867 33.582)">
            <path id="Path_79" data-name="Path 79" d="M614.658,678.055l-.01.329-.313,10.135-8.392-15.161-.272-.492Z" transform="translate(-605.67 -672.865)" fill="#ff445f"/>
          </g>
          <g id="Group_63" data-name="Group 63" transform="translate(27.844 37.484)">
            <path id="Path_80" data-name="Path 80" d="M633.418,686.209l2.214-1.287-.01.329-2.214,1.287Z" transform="translate(-633.408 -684.923)" fill="#e82e4a"/>
          </g>
          <g id="Group_64" data-name="Group 64" transform="translate(18.867 32.295)">
            <path id="Path_81" data-name="Path 81" d="M605.67,670.177l2.214-1.286,8.988,5.189-2.214,1.287Z" transform="translate(-605.67 -668.891)" fill="#e82e4a"/>
          </g>
          <g id="Group_67" data-name="Group 67" transform="translate(31.997 36.446)">
            <path id="SVGID-28" data-name="SVGID" d="M648.453,684.168l-2.214,1.287A2.679,2.679,0,0,0,647.36,683l2.214-1.287A2.678,2.678,0,0,1,648.453,684.168Z" transform="translate(-646.239 -681.715)" fill="#e82e4a"/>
            <g id="Group_66" data-name="Group 66" clip-path="url(#clip-path-8)">
              <g id="Group_65" data-name="Group 65">
                <path id="Path_82" data-name="Path 82" d="M647.36,683l2.214-1.287a2.678,2.678,0,0,1-1.121,2.453l-2.214,1.287A2.679,2.679,0,0,0,647.36,683Z" transform="translate(-646.239 -681.715)" fill="#e82e4a"/>
              </g>
            </g>
          </g>
          <g id="Group_68" data-name="Group 68" transform="translate(33.119 21.832)">
            <path id="Path_83" data-name="Path 83" d="M649.745,637.849l2.214-1.287-.041,14.615-2.214,1.287Z" transform="translate(-649.703 -636.562)" fill="#e82e4a"/>
          </g>
          <g id="Group_69" data-name="Group 69" transform="translate(3.887 0.522)">
            <path id="Path_84" data-name="Path 84" d="M559.39,572.01l2.214-1.287,25.452,14.695-2.214,1.287Z" transform="translate(-559.39 -570.723)" fill="#e82e4a"/>
          </g>
          <g id="Group_70" data-name="Group 70" transform="translate(0 1.286)">
            <path id="Path_85" data-name="Path 85" d="M576.719,588.3a8.451,8.451,0,0,1,3.821,6.615l-.041,14.615c-.007,2.423-1.737,3.409-3.846,2.192l-1.428-.825.01-.329-8.988-5.189.273.492L551.2,597.028a8.451,8.451,0,0,1-3.82-6.618l.041-14.614c.007-2.42,1.738-3.407,3.846-2.189Z" transform="translate(-547.38 -573.085)" fill="#ff445f"/>
          </g>
          <g id="Group_73" data-name="Group 73" transform="translate(29.339 15.217)">
            <path id="SVGID-29" data-name="SVGID" d="M638.027,617.411l2.214-1.287a8.451,8.451,0,0,1,3.821,6.615l-2.214,1.287A8.451,8.451,0,0,0,638.027,617.411Z" transform="translate(-638.027 -616.124)" fill="#e82e4a"/>
            <g id="Group_72" data-name="Group 72" clip-path="url(#clip-path-9)">
              <g id="Group_71" data-name="Group 71">
                <path id="Path_86" data-name="Path 86" d="M638.027,617.411l2.214-1.287a8.451,8.451,0,0,1,3.821,6.615l-2.214,1.287a8.451,8.451,0,0,0-3.821-6.615Z" transform="translate(-638.027 -616.124)" fill="#e82e4a"/>
              </g>
            </g>
          </g>
        </g>
        <g id="Group_75" data-name="Group 75" transform="translate(9.06 12.755)">
          <path id="Path_87" data-name="Path 87" d="M575.373,608.519l2.157,1.246V613.5l1.891,1.091v-3.736l2.157,1.245v9.4l-2.157-1.246v-3.428l-1.891-1.091v3.428l-2.157-1.245Z" transform="translate(-575.373 -608.519)" fill="#edecf8"/>
          <path id="Path_88" data-name="Path 88" d="M597.224,621.134l2.157,1.246v9.4l-2.157-1.245Z" transform="translate(-590.152 -617.051)" fill="#edecf8"/>
          <path id="Path_89" data-name="Path 89" d="M608.65,627.77l-.233,6.734-1.623-.938-.189-6.978Zm-1.957,6.458c0-.192.089-.27.267-.167l1.279.739a.544.544,0,0,1,.256.469v1.5c0,.192-.1.238-.256.148l-1.279-.738a.542.542,0,0,1-.267-.45Z" transform="translate(-596.496 -620.74)" fill="#edecf8"/>
        </g>
      </g>
      <g id="Group_95" data-name="Group 95" transform="translate(127 47.045)">
        <g id="Group_93" data-name="Group 93">
          <g id="Group_77" data-name="Group 77" transform="translate(6.801 24.629)">
            <path id="Path_90" data-name="Path 90" d="M757.982,667.732l2.214-1.287-.233.535-2.214,1.287Z" transform="translate(-757.748 -666.445)" fill="#ffb700"/>
          </g>
          <g id="Group_78" data-name="Group 78" transform="translate(15.066 29.698)">
            <path id="Path_91" data-name="Path 91" d="M783.283,683.631l2.214-1.287.749-.237-2.214,1.287Z" transform="translate(-783.283 -682.107)" fill="#ffb700"/>
          </g>
          <g id="Group_79" data-name="Group 79" transform="translate(3.054 25.916)">
            <path id="Path_92" data-name="Path 92" d="M758.932,675.49l-.749.237-12.012,3.808,3.747-8.579.234-.535Z" transform="translate(-746.171 -670.421)" fill="#fbc70e"/>
          </g>
          <g id="Group_80" data-name="Group 80" transform="translate(7.035 24.629)">
            <path id="Path_93" data-name="Path 93" d="M758.47,667.732l2.214-1.287,8.78,5.069L767.25,672.8Z" transform="translate(-758.47 -666.445)" fill="#ffb700"/>
          </g>
          <g id="Group_83" data-name="Group 83" transform="translate(1.135)">
            <path id="SVGID-30" data-name="SVGID" d="M740.243,591.892l2.214-1.287a2.641,2.641,0,0,1,2.663.256l-2.214,1.287A2.639,2.639,0,0,0,740.243,591.892Z" transform="translate(-740.243 -590.351)" fill="#ffb700"/>
            <g id="Group_82" data-name="Group 82" clip-path="url(#clip-path-10)">
              <g id="Group_81" data-name="Group 81">
                <path id="Path_94" data-name="Path 94" d="M740.243,591.892l2.214-1.287a2.641,2.641,0,0,1,2.663.256l-2.214,1.287a2.639,2.639,0,0,0-2.663-.257Z" transform="translate(-740.243 -590.351)" fill="#ffb700"/>
              </g>
            </g>
          </g>
          <g id="Group_86" data-name="Group 86" transform="translate(31.264 35.611)">
            <path id="SVGID-31" data-name="SVGID" d="M835.544,702.771l-2.214,1.287a2.615,2.615,0,0,0,1.095-2.395l2.214-1.287A2.616,2.616,0,0,1,835.544,702.771Z" transform="translate(-833.33 -700.376)" fill="#ffb700"/>
            <g id="Group_85" data-name="Group 85" clip-path="url(#clip-path-11)">
              <g id="Group_84" data-name="Group 84">
                <path id="Path_95" data-name="Path 95" d="M834.425,701.663l2.214-1.287a2.616,2.616,0,0,1-1.095,2.4l-2.214,1.287a2.615,2.615,0,0,0,1.095-2.395Z" transform="translate(-833.33 -700.376)" fill="#ffb700"/>
              </g>
            </g>
          </g>
          <g id="Group_87" data-name="Group 87" transform="translate(32.359 21.331)">
            <path id="Path_96" data-name="Path 96" d="M836.753,657.543l2.214-1.286-.04,14.28-2.214,1.287Z" transform="translate(-836.712 -656.257)" fill="#ffb700"/>
          </g>
          <g id="Group_88" data-name="Group 88" transform="translate(3.798 0.51)">
            <path id="Path_97" data-name="Path 97" d="M748.47,593.215l2.214-1.287,24.868,14.357-2.214,1.286Z" transform="translate(-748.47 -591.928)" fill="#ffb700"/>
          </g>
          <g id="Group_89" data-name="Group 89" transform="translate(0 1.287)">
            <path id="Path_98" data-name="Path 98" d="M765.4,609.194a8.254,8.254,0,0,1,3.734,6.463l-.041,14.28c-.007,2.365-1.7,3.329-3.758,2.139L751.8,624.262l.749-.238-8.78-5.069-.234.535-3.068-1.771a8.256,8.256,0,0,1-3.733-6.464l.041-14.28c.007-2.365,1.7-3.328,3.757-2.138Z" transform="translate(-736.735 -594.327)" fill="#fbc70e"/>
          </g>
          <g id="Group_92" data-name="Group 92" transform="translate(28.666 14.868)">
            <path id="SVGID-32" data-name="SVGID" d="M825.3,637.574l2.214-1.287a8.254,8.254,0,0,1,3.733,6.464l-2.214,1.286A8.254,8.254,0,0,0,825.3,637.574Z" transform="translate(-825.302 -636.287)" fill="#ffb700"/>
            <g id="Group_91" data-name="Group 91" clip-path="url(#clip-path-12)">
              <g id="Group_90" data-name="Group 90">
                <path id="Path_99" data-name="Path 99" d="M825.3,637.574l2.214-1.287a8.254,8.254,0,0,1,3.733,6.464l-2.214,1.286a8.254,8.254,0,0,0-3.734-6.463Z" transform="translate(-825.302 -636.287)" fill="#ffb700"/>
              </g>
            </g>
          </g>
        </g>
        <g id="Group_94" data-name="Group 94" transform="translate(6.247 13.116)">
          <path id="Path_100" data-name="Path 100" d="M761.068,635.575c0,1.605-1.126,2.255-2.516,1.453a5.561,5.561,0,0,1-2.517-4.358c0-1.6,1.126-2.255,2.517-1.453A5.562,5.562,0,0,1,761.068,635.575Z" transform="translate(-756.035 -630.873)" fill="#fff"/>
          <path id="Path_101" data-name="Path 101" d="M781.877,647.59c0,1.605-1.126,2.256-2.516,1.453a5.561,5.561,0,0,1-2.516-4.358c0-1.6,1.127-2.255,2.517-1.453A5.563,5.563,0,0,1,781.877,647.59Z" transform="translate(-770.109 -638.999)" fill="#fff"/>
          <path id="Path_102" data-name="Path 102" d="M802.686,659.6c0,1.6-1.127,2.255-2.517,1.453a5.563,5.563,0,0,1-2.517-4.358c0-1.605,1.127-2.256,2.517-1.453A5.561,5.561,0,0,1,802.686,659.6Z" transform="translate(-784.183 -647.125)" fill="#fff"/>
        </g>
      </g>
      <g id="Group_114" data-name="Group 114" transform="translate(64.06 0)">
        <g id="Group_113" data-name="Group 113">
          <g id="Group_98" data-name="Group 98" transform="translate(1.549)">
            <path id="SVGID-33" data-name="SVGID" d="M547.06,446.775l2.457-1.428a3.6,3.6,0,0,1,3.628.348l-2.457,1.428A3.594,3.594,0,0,0,547.06,446.775Z" transform="translate(-547.06 -445)" fill="#98a4e0"/>
            <g id="Group_97" data-name="Group 97" clip-path="url(#clip-path-13)">
              <g id="Group_96" data-name="Group 96">
                <path id="Path_103" data-name="Path 103" d="M547.06,446.775l2.457-1.428a3.6,3.6,0,0,1,3.628.348l-2.457,1.428a3.594,3.594,0,0,0-3.628-.348Z" transform="translate(-547.06 -445)" fill="#98a4e0"/>
              </g>
            </g>
          </g>
          <g id="Group_99" data-name="Group 99" transform="translate(37.154 49.96)">
            <path id="Path_104" data-name="Path 104" d="M657.065,600.784l2.457-1.428.792.9-2.457,1.428Z" transform="translate(-657.065 -599.356)" fill="#98a4e0"/>
          </g>
          <g id="Group_100" data-name="Group 100" transform="translate(49.354 57.449)">
            <path id="Path_105" data-name="Path 105" d="M694.761,623.922l2.457-1.428,4.617,11.677-2.457,1.428Z" transform="translate(-694.761 -622.494)" fill="#98a4e0"/>
          </g>
          <g id="Group_101" data-name="Group 101" transform="translate(37.154 51.388)">
            <path id="Path_106" data-name="Path 106" d="M669.038,610.68l.228.577,4.617,11.677L657.857,604.67l-.792-.9Z" transform="translate(-657.065 -603.768)" fill="#e3e2f2"/>
          </g>
          <g id="Group_102" data-name="Group 102" transform="translate(49.126 56.872)">
            <path id="Path_107" data-name="Path 107" d="M694.055,622.14l2.457-1.428.228.577-2.457,1.428Z" transform="translate(-694.055 -620.712)" fill="#98a4e0"/>
          </g>
          <g id="Group_103" data-name="Group 103" transform="translate(37.154 49.96)">
            <path id="Path_108" data-name="Path 108" d="M657.065,600.784l2.457-1.428,11.972,6.912-2.457,1.428Z" transform="translate(-657.065 -599.356)" fill="#98a4e0"/>
          </g>
          <g id="Group_106" data-name="Group 106" transform="translate(54.645 55.489)">
            <path id="SVGID-34" data-name="SVGID" d="M713.565,619.708l-2.457,1.428a3.567,3.567,0,0,0,1.494-3.267l2.457-1.428A3.569,3.569,0,0,1,713.565,619.708Z" transform="translate(-711.108 -616.441)" fill="#98a4e0"/>
            <g id="Group_105" data-name="Group 105" clip-path="url(#clip-path-14)">
              <g id="Group_104" data-name="Group 104">
                <path id="Path_109" data-name="Path 109" d="M712.6,617.869l2.457-1.428a3.569,3.569,0,0,1-1.494,3.267l-2.457,1.428a3.567,3.567,0,0,0,1.494-3.267Z" transform="translate(-711.108 -616.441)" fill="#98a4e0"/>
              </g>
            </g>
          </g>
          <g id="Group_107" data-name="Group 107" transform="translate(56.139 36.026)">
            <path id="Path_110" data-name="Path 110" d="M715.778,557.733l2.457-1.428-.055,19.464-2.457,1.428Z" transform="translate(-715.723 -556.305)" fill="#98a4e0"/>
          </g>
          <g id="Group_108" data-name="Group 108" transform="translate(5.177 0.695)">
            <path id="Path_111" data-name="Path 111" d="M558.271,448.574l2.457-1.428,45.928,26.517-2.457,1.428Z" transform="translate(-558.271 -447.146)" fill="#98a4e0"/>
          </g>
          <g id="Group_109" data-name="Group 109" transform="translate(0 1.428)">
            <path id="Path_112" data-name="Path 112" d="M593.38,476.624a11.26,11.26,0,0,1,5.089,8.814l-.055,19.464c-.009,3.226-2.315,4.54-5.122,2.919l-1.662-.96-.229-.577-11.972-6.912.792.9L547.364,481.3a11.259,11.259,0,0,1-5.089-8.815l.055-19.463c.009-3.226,2.315-4.54,5.122-2.919Z" transform="translate(-542.275 -449.413)" fill="#e3e2f2"/>
          </g>
          <g id="Group_112" data-name="Group 112" transform="translate(51.105 27.211)">
            <path id="SVGID-35" data-name="SVGID" d="M700.17,530.5l2.457-1.428a11.258,11.258,0,0,1,5.089,8.814l-2.457,1.428A11.26,11.26,0,0,0,700.17,530.5Z" transform="translate(-700.17 -529.072)" fill="#98a4e0"/>
            <g id="Group_111" data-name="Group 111" clip-path="url(#clip-path-15)">
              <g id="Group_110" data-name="Group 110">
                <path id="Path_113" data-name="Path 113" d="M700.17,530.5l2.457-1.428a11.258,11.258,0,0,1,5.089,8.814l-2.457,1.428a11.26,11.26,0,0,0-5.089-8.814Z" transform="translate(-700.17 -529.072)" fill="#98a4e0"/>
              </g>
            </g>
          </g>
        </g>
      </g>
      <g id="Group_115" data-name="Group 115" transform="translate(68.363 14.414)">
        <path id="Path_114" data-name="Path 114" d="M555.571,489.533l1.915,1.106,2.042,5.4v-4.221l1.9,1.095v8.26l-1.9-1.094-2.052-5.292v4.107l-1.906-1.1Z" transform="translate(-555.571 -489.533)" fill="#4f389e"/>
        <path id="Path_115" data-name="Path 115" d="M577.762,510.807c1.73,1,2.375,1.619,2.375,3.6,0,1.23-.6,1.258-1.535.717l-1.212-.7c0,.812.46.909,1.183,1.326a8.172,8.172,0,0,0,1.466.722V517.9a9.6,9.6,0,0,1-2.834-1.321c-1.32-.762-1.71-1.992-1.71-4.068C575.495,510.016,576.081,509.836,577.762,510.807Zm.2,2.561c.166.1.283.017.283-.2,0-.406-.009-.581-.342-.773-.41-.237-.528-.225-.508.643Z" transform="translate(-569.046 -503.551)" fill="#4f389e"/>
        <path id="Path_116" data-name="Path 116" d="M593.609,519.957c1.73,1,2.375,1.619,2.375,3.6,0,1.23-.6,1.258-1.535.716l-1.212-.7c0,.812.46.909,1.182,1.326a8.227,8.227,0,0,0,1.466.722v1.422a9.608,9.608,0,0,1-2.834-1.321c-1.319-.761-1.71-1.992-1.71-4.068C591.341,519.166,591.928,518.986,593.609,519.957Zm.2,2.561c.166.1.283.017.283-.2,0-.407-.009-.581-.342-.773-.41-.237-.527-.226-.508.643Z" transform="translate(-579.764 -509.74)" fill="#4f389e"/>
        <path id="Path_117" data-name="Path 117" d="M608.871,524.818a5.243,5.243,0,0,1,1.29,1.084v-3.115l1.9,1.094v8.858l-1.622-.936-.283-.717a1.253,1.253,0,0,1-1.28-.118c-1.163-.672-1.681-1.738-1.681-4.006C607.19,524.739,607.464,524.006,608.871,524.818Zm.645,4.751c.3.175.538.254.635.118V527.3a1.859,1.859,0,0,0-.635-.536c-.274-.158-.43-.09-.43,1.185C609.086,529.174,609.232,529.405,609.516,529.569Z" transform="translate(-590.483 -512.024)" fill="#4f389e"/>
        <path id="Path_118" data-name="Path 118" d="M631.793,531.8l1.886,1.089V536.3c.294-.158.645-.316,1.437.141a3.078,3.078,0,0,1,1.5,3.125v3.837l-1.9-1.095v-3.882c0-.474-.107-.649-.322-.774-.362-.208-.6-.231-.713.006v4.051l-1.9-1.094Z" transform="translate(-607.123 -518.118)" fill="#4f389e"/>
        <path id="Path_119" data-name="Path 119" d="M650.631,552.878c1.729,1,2.375,1.619,2.375,3.6,0,1.23-.6,1.258-1.534.717l-1.212-.7c0,.812.46.909,1.183,1.326a8.162,8.162,0,0,0,1.466.722v1.422a9.608,9.608,0,0,1-2.834-1.321c-1.319-.761-1.71-1.992-1.71-4.068C648.364,552.087,648.951,551.907,650.631,552.878Zm.2,2.561c.166.1.284.017.284-.2,0-.406-.009-.581-.342-.773-.411-.237-.528-.225-.508.643Z" transform="translate(-618.33 -532.006)" fill="#4f389e"/>
        <path id="Path_120" data-name="Path 120" d="M664.393,550.584l1.9,1.094v6.252a1.665,1.665,0,0,0,.362,1.281s.41.474.479.513V561l-1.348-.778c-.929-.536-1.388-1.343-1.388-2.934Z" transform="translate(-629.171 -530.824)" fill="#4f389e"/>
        <path id="Path_121" data-name="Path 121" d="M674.2,565.033l1.622.936.283.717a1.253,1.253,0,0,1,1.281.118c1.162.672,1.68,1.862,1.68,4.006,0,1.9-.273,2.957-1.68,2.144a5.22,5.22,0,0,1-1.29-1.083v3.3l-1.9-1.095Zm2.541,5.981c.274.158.43.09.43-1.185,0-1.23-.146-1.461-.43-1.625-.3-.175-.538-.254-.635-.119v2.393A1.861,1.861,0,0,0,676.744,571.014Z" transform="translate(-635.806 -540.596)" fill="#4f389e"/>
        <path id="Path_122" data-name="Path 122" d="M690.385,568.168a9.519,9.519,0,0,1,2.756,1.253,4.53,4.53,0,0,1,2.237,3.606v.575c0,1.523-.459,2.138-2.081,1.134v.914l-1.417-.818v-2.505l.9.519c.479.254.713.22.713-.378V572.3a1.38,1.38,0,0,0-.85-1.19l-2.257-1.3Zm1.407,7.234c0-.169.078-.238.235-.147l1.1.638a.451.451,0,0,1,.244.423v1.32c0,.2-.107.2-.244.119l-1.1-.638a.475.475,0,0,1-.235-.395Z" transform="translate(-646.75 -542.717)" fill="#4f389e"/>
      </g>
      <g id="Group_158" data-name="Group 158" transform="translate(60.516 81.564)">
        <g id="Group_126" data-name="Group 126" transform="translate(0 44.24)">
          <g id="Group_116" data-name="Group 116" transform="translate(5.739 7.493)">
            <path id="Path_123" data-name="Path 123" d="M560.568,878.635a25.537,25.537,0,0,1-10.483-2.23,1.743,1.743,0,1,1,1.433-3.178,22.04,22.04,0,0,0,30.515-15.047,1.743,1.743,0,0,1,3.394.8,25.44,25.44,0,0,1-24.859,19.656Z" transform="translate(-549.057 -856.836)" fill="#ff445f"/>
          </g>
          <g id="Group_125" data-name="Group 125" transform="translate(33.852)">
            <g id="Group_124" data-name="Group 124">
              <g id="Group_119" data-name="Group 119" transform="translate(6.409)">
                <path id="SVGID-36" data-name="SVGID" d="M660.3,834.118l4.331,2.517c-1.169-.68-2.79-.584-4.578.449l-4.331-2.517C657.507,833.535,659.127,833.439,660.3,834.118Z" transform="translate(-655.719 -833.684)" fill="#f4f4fb"/>
                <g id="Group_118" data-name="Group 118" clip-path="url(#clip-path-16)">
                  <g id="Group_117" data-name="Group 117">
                    <path id="Path_124" data-name="Path 124" d="M660.05,837.084l-4.331-2.517c1.788-1.033,3.408-1.129,4.578-.449l4.331,2.517c-1.169-.68-2.79-.584-4.578.449Z" transform="translate(-655.719 -833.684)" fill="#f4f4fb"/>
                  </g>
                </g>
              </g>
              <g id="Group_122" data-name="Group 122" transform="translate(0 0.883)">
                <path id="SVGID-37" data-name="SVGID" d="M642.123,854.155l-4.331-2.516c-1.154-.671-1.87-2.1-1.876-4.125a14.126,14.126,0,0,1,6.409-11.1l4.331,2.517a14.123,14.123,0,0,0-6.409,11.1C640.254,852.058,640.969,853.484,642.123,854.155Z" transform="translate(-635.917 -836.412)" fill="#f4f4fb"/>
                <g id="Group_121" data-name="Group 121" clip-path="url(#clip-path-17)">
                  <g id="Group_120" data-name="Group 120">
                    <path id="Path_125" data-name="Path 125" d="M642.183,878.727l-4.331-2.516a4.2,4.2,0,0,1-1.847-3.467l4.331,2.517a4.2,4.2,0,0,0,1.847,3.466Z" transform="translate(-635.977 -860.985)" fill="#f4f4fb"/>
                    <path id="Path_126" data-name="Path 126" d="M640.276,852.787l-4.331-2.517c-.018-.211-.028-.431-.028-.658a14.329,14.329,0,0,1,4.986-10.1l4.331,2.516a14.328,14.328,0,0,0-4.985,10.1c0,.227.01.446.028.658Z" transform="translate(-635.917 -838.511)" fill="#f4f4fb"/>
                    <path id="Path_127" data-name="Path 127" d="M655.653,839.933l-4.331-2.516a10.053,10.053,0,0,1,1.423-1l4.331,2.517a10.076,10.076,0,0,0-1.424,1Z" transform="translate(-646.336 -836.412)" fill="#f4f4fb"/>
                  </g>
                </g>
              </g>
              <g id="Group_123" data-name="Group 123" transform="translate(4.331 2.517)">
                <path id="Path_128" data-name="Path 128" d="M655.708,842.343c3.553-2.051,6.442-.407,6.453,3.676a14.126,14.126,0,0,1-6.411,11.1c-3.551,2.05-6.439.406-6.451-3.676A14.123,14.123,0,0,1,655.708,842.343Z" transform="translate(-649.299 -841.461)" fill="#f4f4fb"/>
              </g>
            </g>
          </g>
          <path id="Path_129" data-name="Path 129" d="M543.4,897.078a6.038,6.038,0,1,0-6.037,6.038A6.038,6.038,0,0,0,543.4,897.078Z" transform="translate(-531.327 -872.476)" fill="#ff445f"/>
        </g>
        <g id="Group_130" data-name="Group 130" transform="translate(38.487 38.97)">
          <path id="Path_130" data-name="Path 130" d="M753.985,859.626a15.872,15.872,0,0,0-5.683-5.893c-1.438-.83-4.656-.119-8.4,2.056.321.185.638.388.952.6l-2.3,1.337.05.036c-.33-.227-.665-.44-1-.636-5.089,2.957-9.221,7.5-9.228,10.151a13.743,13.743,0,0,1,6.232,10.792c2.3,1.33,8.3.012,13.389-2.946l2.3-1.338c3.731-2.168,5.939-4.615,5.944-6.374A15.737,15.737,0,0,0,753.985,859.626Z" transform="translate(-703.082 -841.747)" fill="#bfbeed"/>
          <g id="Group_127" data-name="Group 127" transform="translate(7.136 68.715)">
            <path id="Path_131" data-name="Path 131" d="M672.284,1029.7l18,10.394a1.6,1.6,0,0,0,.8,1.5l-1.8-1.039-1.8-1.039-1.8-1.039-1.8-1.039-1.8-1.039-1.8-1.039-1.8-1.039-1.8-1.039-1.8-1.04-1.8-1.039a1.6,1.6,0,0,1-.8-1.5Z" transform="translate(-672.284 -1029.705)" fill="#98a4e0"/>
          </g>
          <path id="Path_132" data-name="Path 132" d="M657.374,922.139a13.744,13.744,0,0,1-6.232-10.794,1.7,1.7,0,0,1-.84-1.008,1.7,1.7,0,0,0,.84,1.008l.111-39.209a1.631,1.631,0,0,1-.9-1.473l-.011,3.921-.011,3.921-.011,3.921-.011,3.921-.011,3.921-.011,3.921-.011,3.921-.011,3.921-.011,3.921-.011,3.922h0a16.07,16.07,0,0,0,2.255,7.871,15.824,15.824,0,0,0,5.683,5.893A1.6,1.6,0,0,1,657.374,922.139Zm-7.081-11.829c-.011-.041-.017-.085-.025-.128C650.275,910.225,650.281,910.268,650.292,910.31Zm-.041-.214c0-.027,0-.057-.005-.084C650.248,910.039,650.248,910.069,650.251,910.1Z" transform="translate(-650.238 -853.425)" fill="#bfbeed"/>
          <path id="Path_133" data-name="Path 133" d="M661.871,820.326l-2.3,1.339h0c-8.7,5.262-8.916,11.07-8.986,12.977a1.632,1.632,0,0,0,.9,1.472c.008-3.961,2.825-5.566,6.273-3.572.007-2.648,4.14-7.194,9.229-10.151l2.3-1.339c3.744-2.175,6.963-2.886,8.389-2.061C674.747,817.431,669.919,815.874,661.871,820.326Z" transform="translate(-650.471 -817.403)" fill="#edecf8"/>
          <path id="Path_134" data-name="Path 134" d="M708.886,830.975l-1.8-1.039-1.8-1.039-1.8-1.039-1.8-1.039-1.8-1.039-1.8-1.04-1.8-1.04-1.8-1.039-1.8-1.039c-1.438-.831-4.657-.119-8.4,2.055l-2.3,1.339c-5.089,2.957-9.222,7.5-9.229,10.151l18,10.393c.007-2.648,4.14-7.194,9.228-10.151l2.3-1.338c3.743-2.175,6.962-2.886,8.4-2.056Z" transform="translate(-665.466 -820.028)" fill="#edecf8"/>
          <g id="Group_128" data-name="Group 128" transform="translate(0.903 14.282)">
            <path id="Path_135" data-name="Path 135" d="M677.414,872.779a13.743,13.743,0,0,1,6.232,10.792q-.055,19.6-.111,39.21c-.009,3.964-2.825,5.568-6.273,3.575l-18-10.394a13.745,13.745,0,0,1-6.232-10.794q.056-19.6.111-39.21c.009-3.961,2.825-5.566,6.273-3.572Z" transform="translate(-653.029 -861.528)" fill="#edecf8"/>
          </g>
          <g id="Group_129" data-name="Group 129" transform="translate(25.289 11.65)">
            <path id="Path_136" data-name="Path 136" d="M780.337,867.5c0-.272-.019-.635-.029-.907l-.08-.817c-.033-.251-.093-.585-.133-.835l-.173-.795c-.059-.239-.152-.555-.218-.793l-.254-.772c-.082-.23-.2-.533-.291-.761l-.326-.745c-.1-.222-.252-.512-.359-.731l-.392-.714c-.122-.212-.3-.488-.423-.7l-.453-.676c-.141-.2-.339-.461-.485-.658l-.511-.63c-.16-.188-.385-.431-.55-.615l-.57-.576c-.183-.175-.438-.4-.626-.569l-.632-.512c-.215-.163-.512-.367-.732-.523l-.7-.435c-1.438-.83-4.657-.119-8.4,2.056q.483.278.954.6a17.862,17.862,0,0,1,1.919-.938c5-2.068,7.531-.271,9.521,1.978.055.062,5.492,6.307,3.044,12.222A3.851,3.851,0,0,0,780.337,867.5Z" transform="translate(-752.468 -853.396)" fill="#e3e2f2"/>
            <path id="Path_137" data-name="Path 137" d="M728.371,872.279A13.743,13.743,0,0,1,734.6,883.07c1.146.661,3.2.668,5.608.145-.077-.02-.182-.042-.259-.064a4.915,4.915,0,0,1-2.881-2.632c-.045-.075-4.5-7.872-4.687-10.03-.3-3.481,3.992-6.458,5.849-7.576l.32-.185h0l2.3-1.339q-.471-.321-.954-.6l-2.3,1.338C732.511,865.085,728.379,869.63,728.371,872.279Z" transform="translate(-728.371 -858.396)" fill="#e3e2f2"/>
          </g>
          <path id="Path_138" data-name="Path 138" d="M768.129,899.113a17.007,17.007,0,0,1-5.043,4.133l-2.3,1.338a27.809,27.809,0,0,1-7.782,3.09c-2.4.523-4.461.516-5.607-.145l-.111,39.21c1.145.661,3.2.668,5.606.145a27.826,27.826,0,0,0,7.782-3.09l2.3-1.339a17.016,17.016,0,0,0,5.043-4.133,3.855,3.855,0,0,0,.9-2.159l.011-3.921.011-3.921.011-3.921.011-3.921.011-3.921.011-3.921.011-3.921.011-3.921.011-3.921.011-3.921A3.853,3.853,0,0,1,768.129,899.113Z" transform="translate(-715.873 -871.206)" fill="#bfbeed"/>
          <path id="Path_139" data-name="Path 139" d="M749.868,1024.388l-2.3,1.339c-5.089,2.958-11.084,4.276-13.388,2.945-.009,3.964-2.825,5.568-6.273,3.575a1.6,1.6,0,0,0,.8,1.5,13.972,13.972,0,0,0,1.47.722,11.364,11.364,0,0,0,2.141.64,11.615,11.615,0,0,0,1.66.206,14.454,14.454,0,0,0,2.037-.036,18.225,18.225,0,0,0,4.055-.851c.275-.093.644-.213.914-.322.52-.207,1.207-.5,1.716-.728.564-.254,1.284-.66,1.825-.959l2.3-1.338h0a23.374,23.374,0,0,0,3.6-2.566,20.13,20.13,0,0,0,1.5-1.448,16.611,16.611,0,0,0,1.339-1.608c.151-.218.362-.5.5-.726.214-.341.485-.8.677-1.157a11.238,11.238,0,0,0,.672-1.523c.152-.442.317-1.044.429-1.5.06-.24.1-.568.144-.812a13.34,13.34,0,0,0,.117-1.641C755.808,1019.772,753.6,1022.22,749.868,1024.388Z" transform="translate(-702.766 -953.139)" fill="#98a4e0"/>
        </g>
        <g id="Group_143" data-name="Group 143" transform="translate(38.234)">
          <g id="Group_133" data-name="Group 133" transform="translate(46.121 37.602)">
            <path id="SVGID-38" data-name="SVGID" d="M805.55,813.178a.357.357,0,0,1-.192.33c.025,8.413-5.9,18.673-13.223,22.9a.349.349,0,0,1-.184.326,28.207,28.207,0,0,0,9.649-10.152c.492-.852.492-.852,1.349-2.594.192-.391.407-.932.581-1.333.06-.138.6-1.489.962-2.705.12-.408.273-.954.374-1.368s.207-.952.3-1.36.152-.947.215-1.354.105-.953.132-1.363S805.537,813.576,805.55,813.178Z" transform="translate(-791.951 -813.178)" fill="#98a4e0"/>
            <g id="Group_132" data-name="Group 132" clip-path="url(#clip-path-18)">
              <g id="Group_131" data-name="Group 131" transform="translate(0.015)">
                <path id="Path_140" data-name="Path 140" d="M805.582,813.178A29.832,29.832,0,0,1,792,836.725a.343.343,0,0,0,.169-.317c7.325-4.227,13.248-14.487,13.223-22.9a.357.357,0,0,0,.192-.33Z" transform="translate(-791.998 -813.178)" fill="#98a4e0"/>
              </g>
            </g>
          </g>
          <g id="Group_134" data-name="Group 134" transform="translate(43.218 60.832)">
            <path id="Path_141" data-name="Path 141" d="M783.167,886.625l2.9-1.676a.349.349,0,0,1-.184.326l-.29.168-.29.168-.29.168-.291.168-.29.167-.29.168-.29.167-.291.168-.29.167h0l-.145.084-.145.084a.352.352,0,0,0,.184-.326Z" transform="translate(-782.983 -884.949)" fill="#98a4e0"/>
          </g>
          <g id="Group_135" data-name="Group 135" transform="translate(59.511 31.453)">
            <path id="Path_142" data-name="Path 142" d="M833.339,800.659l-.017-6.149a.357.357,0,0,0,.192-.33l0,.615,0,.615,0,.614,0,.615,0,.615,0,.615,0,.615,0,.615,0,.615,0,.615a.357.357,0,0,1-.192.33Z" transform="translate(-833.321 -794.18)" fill="#98a4e0"/>
          </g>
          <g id="Group_136" data-name="Group 136" transform="translate(18.645 51.109)">
            <path id="Path_143" data-name="Path 143" d="M731.634,866.633c-1.264.665-3,1.577-7.071.37a72.8,72.8,0,0,1-15.165-6.958c-1.438-.835-2.33-2.613-2.337-5.138,9.238,5.369,17.86,9.069,19.255,8.264.008,3.478,2.477,4.885,5.5,3.136a.351.351,0,0,1-.184.326Z" transform="translate(-707.061 -854.907)" fill="#e3e2f2"/>
          </g>
          <path id="Path_144" data-name="Path 144" d="M664,751.13l.068,24.026c-7.853-4.563-13.625-8.865-14.324-10.547l-.068-24.026c.7,1.683,6.471,5.984,14.324,10.547Z" transform="translate(-649.604 -726.477)" fill="#edecf8"/>
          <g id="Group_137" data-name="Group 137" transform="translate(14.395 24.653)">
            <path id="Path_145" data-name="Path 145" d="M698.181,799.625,694,797.2l-.068-24.026,4.182,2.43Z" transform="translate(-693.931 -773.169)" fill="#edecf8"/>
          </g>
          <g id="Group_138" data-name="Group 138" transform="translate(0 3.58)">
            <path id="Path_146" data-name="Path 146" d="M649.455,718.285a12.7,12.7,0,0,1,5.837-10.122c1.211-.7,8.155,2.267,16.543,7.142-4.423,2.554-8,8.747-7.984,13.83-8.38-4.87-14.391-9.441-14.4-10.85Z" transform="translate(-649.455 -708.062)" fill="#edecf8"/>
          </g>
          <g id="Group_139" data-name="Group 139" transform="translate(14.395 14.568)">
            <path id="Path_147" data-name="Path 147" d="M698.113,769.986l-4.182-2.43a12.77,12.77,0,0,1,.295-2.686l4.182,2.43a12.791,12.791,0,0,0-.295,2.686Z" transform="translate(-693.931 -757.47)" fill="#edecf8"/>
            <path id="Path_148" data-name="Path 148" d="M699.023,763.021l-4.181-2.43a16.264,16.264,0,0,1,.583-2.047l4.181,2.43a16.458,16.458,0,0,0-.583,2.047Z" transform="translate(-694.547 -753.192)" fill="#edecf8"/>
            <path id="Path_149" data-name="Path 149" d="M700.824,749.791l-4.181-2.43a19.318,19.318,0,0,1,2.947-5.352l4.214,2.371a19.744,19.744,0,0,0-2.979,5.411Z" transform="translate(-695.765 -742.009)" fill="#edecf8"/>
          </g>
          <g id="Group_140" data-name="Group 140" transform="translate(18.577 27.083)">
            <path id="Path_150" data-name="Path 150" d="M765.559,806.208l.068,24.026a.928.928,0,0,1-.374.1l-.068-24.026a.919.919,0,0,0,.374-.1Z" transform="translate(-746.304 -797.945)" fill="#e3e2f2"/>
            <path id="Path_151" data-name="Path 151" d="M725.731,789.043l.068,24.026c-2.175.2-10.259-3.355-18.88-8.366l-.068-24.026c8.621,5.01,16.706,8.567,18.88,8.366Z" transform="translate(-706.851 -780.677)" fill="#edecf8"/>
          </g>
          <g id="Group_141" data-name="Group 141" transform="translate(18.577 13.253)">
            <path id="Path_152" data-name="Path 152" d="M726.106,760.042c-1.395.806-10.017-2.895-19.255-8.263-.015-5.083,3.561-11.276,7.984-13.83,9.238,5.368,16.733,11.022,16.738,12.624a12.054,12.054,0,0,0-5.467,9.469Z" transform="translate(-706.851 -737.949)" fill="#edecf8"/>
          </g>
          <g id="Group_142" data-name="Group 142" transform="translate(37.832 22.382)">
            <path id="Path_153" data-name="Path 153" d="M774.711,767.971c7.325-4.231,13.287-.833,13.309,7.582q.009,3.074.017,6.149c.025,8.413-5.9,18.673-13.223,22.9l-2.9,1.676c-3.026,1.749-5.495.342-5.5-3.136q-.034-12.013-.068-24.026a12.053,12.053,0,0,1,5.467-9.469Z" transform="translate(-766.341 -766.152)" fill="#98a4e0"/>
          </g>
          <path id="Path_154" data-name="Path 154" d="M723.52,718.593c-1.954-2.158-6.159-5.838-15.087-11.115,0,0-12.463-8.2-21.312-10.036A13.661,13.661,0,0,0,676.478,699c1.2-.7,8.148,2.271,16.536,7.146l4.182,2.43c9.238,5.369,16.733,11.022,16.737,12.624,7.325-4.231,13.287-.833,13.309,7.582a.357.357,0,0,0,.192-.33A13.477,13.477,0,0,0,723.52,718.593Z" transform="translate(-667.732 -697.001)" fill="#bfbeed"/>
          <path id="Path_155" data-name="Path 155" d="M691.131,712.55l-4.182-2.43c-8.389-4.875-15.333-7.841-16.536-7.146l-.29.168-.29.168-.29.167-.29.168-.29.167-.29.168-.291.167-.29.168-.29.168-.29.167c1.2-.695,8.148,2.271,16.536,7.146l4.182,2.43c9.238,5.368,16.733,11.022,16.738,12.624l2.9-1.676C707.864,723.572,700.368,717.919,691.131,712.55Z" transform="translate(-661.666 -700.973)" fill="#bfbeed"/>
          <path id="Path_156" data-name="Path 156" d="M676.017,717.729l-4.182-2.43c-8.388-4.875-15.332-7.84-16.536-7.146-.154.089-.353.22-.5.314l-.482.346c-.143.109-.325.264-.464.376l-.445.406c-.131.127-.3.3-.427.432l-.407.456c-.12.141-.272.336-.388.479l-.367.5c-.107.153-.242.362-.346.517l-.324.533c-.093.162-.209.382-.3.546l-.274.557c-.078.169-.174.4-.248.568l-.22.574c-.061.173-.134.408-.191.582l-.159.583c-.044.176-.09.413-.128.59l-.093.586c-.023.179-.04.418-.058.6s-.013.409-.018.584h0l.007,2.4.007,2.4.006,2.4.007,2.4.007,2.4.007,2.4.007,2.4.006,2.4.007,2.4.006,2.4a.813.813,0,0,0,.072.3l-.068-24.026c-.014-.034-.022-.065-.032-.1.01.033.018.064.033.1-.01-2.608,1.171-6.212,3.413-6.194,1.315.01,3.94.785,14.15,6.333l.585.32s20.1,11.216,21.3,12.658c.476.571.242,1.065-.452,2.531a14.426,14.426,0,0,0-1.582,5.346c0,.1-.009.241-.013.344a.905.905,0,0,0,.36-.1,12.053,12.053,0,0,1,5.467-9.469C692.749,728.751,685.255,723.1,676.017,717.729Z" transform="translate(-649.455 -704.476)" fill="#e3e2f2"/>
          <path id="Path_157" data-name="Path 157" d="M669.263,831.152a6.921,6.921,0,0,1-1.02-3.891l-4.182-2.43c-8.381-4.871-14.355-9.531-14.395-10.8.07,1.409.165,3.341,3.341,6.365a76.832,76.832,0,0,0,13.391,9.573l4.182,2.43A4.04,4.04,0,0,1,669.263,831.152Z" transform="translate(-649.598 -776.153)" fill="#e3e2f2"/>
        </g>
        <path id="Path_158" data-name="Path 158" d="M687.287,758.744c-3.459-.968-10.009-4.044-16.906-8.052l-4.182-2.43c-6.237-3.625-11.159-7.082-13.271-9.195v23.957c2.074,2.106,7.034,5.6,13.339,9.263l4.182,2.43c6.852,3.982,13.362,7.044,16.838,8.032Z" transform="translate(-613.57 -725.452)" fill="#1f0159"/>
        <g id="Group_145" data-name="Group 145" transform="translate(42.281 23.348)">
          <g id="Group_144" data-name="Group 144">
            <path id="Path_159" data-name="Path 159" d="M668.344,776.593c0,2.927-1.43,4.474-3.193,3.456s-3.193-4.216-3.193-7.142,1.429-4.474,3.193-3.456S668.344,773.666,668.344,776.593Z" transform="translate(-661.959 -769.137)" fill="#ff445f"/>
            <path id="Path_160" data-name="Path 160" d="M726.392,810.105c0,2.927-1.43,4.474-3.193,3.456s-3.193-4.216-3.193-7.142,1.429-4.474,3.193-3.456S726.392,807.179,726.392,810.105Z" transform="translate(-701.218 -791.803)" fill="#ff445f"/>
          </g>
          <path id="Path_161" data-name="Path 161" d="M691.335,818.444c0,.05-.007.1-.007.15a6.808,6.808,0,0,0,3.081,5.336c1.7.983,3.081.186,3.081-1.778,0-.052,0-.106-.006-.158Z" transform="translate(-681.822 -802.485)" fill="#ff445f"/>
        </g>
        <g id="Group_157" data-name="Group 157" transform="translate(46.056 69.106)">
          <g id="Group_146" data-name="Group 146" transform="translate(6.18 9.978)">
            <path id="Path_162" data-name="Path 162" d="M704.226,963.141a25.542,25.542,0,0,1-10.484-2.23,1.743,1.743,0,1,1,1.433-3.178,22.04,22.04,0,0,0,30.515-15.047,1.743,1.743,0,1,1,3.394.8,25.44,25.44,0,0,1-24.859,19.656Z" transform="translate(-692.716 -941.342)" fill="#ff445f"/>
          </g>
          <g id="Group_156" data-name="Group 156" transform="translate(31.411)">
            <g id="Group_155" data-name="Group 155">
              <g id="Group_149" data-name="Group 149" transform="translate(6.409)">
                <path id="SVGID-39" data-name="SVGID" d="M795.051,910.946l4.331,2.517c-1.17-.679-2.79-.583-4.578.449l-4.331-2.516C792.261,910.363,793.881,910.267,795.051,910.946Z" transform="translate(-790.473 -910.512)" fill="#edecf8"/>
                <g id="Group_148" data-name="Group 148" clip-path="url(#clip-path-19)">
                  <g id="Group_147" data-name="Group 147">
                    <path id="Path_163" data-name="Path 163" d="M794.8,913.912l-4.331-2.516c1.788-1.033,3.408-1.129,4.578-.449l4.331,2.517c-1.17-.679-2.79-.583-4.578.449Z" transform="translate(-790.473 -910.512)" fill="#edecf8"/>
                  </g>
                </g>
              </g>
              <g id="Group_152" data-name="Group 152" transform="translate(0 0.883)">
                <path id="SVGID-40" data-name="SVGID" d="M776.877,930.984l-4.331-2.517c-1.154-.671-1.87-2.1-1.876-4.125a14.125,14.125,0,0,1,6.409-11.1l4.331,2.516a14.125,14.125,0,0,0-6.409,11.1C775.008,928.887,775.723,930.313,776.877,930.984Z" transform="translate(-770.671 -913.241)" fill="#edecf8"/>
                <g id="Group_151" data-name="Group 151" clip-path="url(#clip-path-20)">
                  <g id="Group_150" data-name="Group 150">
                    <path id="Path_164" data-name="Path 164" d="M776.936,955.557l-4.331-2.517a4.2,4.2,0,0,1-1.848-3.466l4.331,2.516a4.2,4.2,0,0,0,1.847,3.467Z" transform="translate(-770.73 -937.814)" fill="#edecf8"/>
                    <path id="Path_165" data-name="Path 165" d="M775.03,929.615,770.7,927.1q-.028-.318-.028-.659a14.327,14.327,0,0,1,4.986-10.1l4.331,2.517a14.328,14.328,0,0,0-4.986,10.1q0,.341.028.658Z" transform="translate(-770.671 -915.339)" fill="#edecf8"/>
                    <path id="Path_166" data-name="Path 166" d="M790.406,916.762l-4.331-2.517a10,10,0,0,1,1.424-1l4.331,2.516a10.115,10.115,0,0,0-1.423,1Z" transform="translate(-781.089 -913.241)" fill="#edecf8"/>
                  </g>
                </g>
              </g>
              <g id="Group_153" data-name="Group 153" transform="translate(4.331 2.517)">
                <path id="Path_167" data-name="Path 167" d="M790.461,919.172c3.553-2.051,6.442-.407,6.453,3.675a14.127,14.127,0,0,1-6.411,11.1c-3.551,2.05-6.44.406-6.451-3.677A14.125,14.125,0,0,1,790.461,919.172Z" transform="translate(-784.052 -918.289)" fill="#cccbf6"/>
              </g>
              <g id="Group_154" data-name="Group 154" transform="translate(6.835 5.737)">
                <path id="Path_168" data-name="Path 168" d="M795.7,928.777c2.169-1.253,3.934-.249,3.941,2.244a8.624,8.624,0,0,1-3.916,6.78c-2.168,1.252-3.933.248-3.94-2.245A8.626,8.626,0,0,1,795.7,928.777Z" transform="translate(-791.787 -928.238)" fill="#ff445f"/>
              </g>
            </g>
          </g>
          <path id="Path_169" data-name="Path 169" d="M685.7,983.084a6.038,6.038,0,1,0-6.037,6.038A6.037,6.037,0,0,0,685.7,983.084Z" transform="translate(-673.623 -955.512)" fill="#ff445f"/>
        </g>
      </g>
      <g id="Group_160" data-name="Group 160" transform="translate(35.358 113.491)">
        <path id="Path_170" data-name="Path 170" d="M482.4,796.146l-21.837,12.608a8.29,8.29,0,0,0-3.728,6.477v8.628a14.82,14.82,0,0,1-3.232,8.251c2.255.217,5.148-2.227,7.748-5.53L482.4,814.427a8.29,8.29,0,0,0,3.728-6.477v-9.631C486.124,795.94,484.446,794.962,482.4,796.146Z" transform="translate(-453.599 -795.643)" fill="#ff445f"/>
        <g id="Group_159" data-name="Group 159" transform="translate(7.06 6.666)">
          <path id="Path_171" data-name="Path 171" d="M485.078,853.751l-9.666,5.581v-2.117l9.666-5.581Z" transform="translate(-475.412 -840.178)" fill="#f4f4fb"/>
          <path id="Path_172" data-name="Path 172" d="M498.418,816.239v2.117l-23,13.282v-2.117Z" transform="translate(-475.413 -816.239)" fill="#f4f4fb"/>
        </g>
      </g>
      <g id="Group_162" data-name="Group 162" transform="translate(0 146.152)">
        <path id="Path_173" data-name="Path 173" d="M349.1,909.344l21-12.148c2.608-1.506,4.741-.274,4.741,2.738v8.541c.331,3.438,1.765,5.743,4.11,5.711a10.851,10.851,0,0,1-9.853,4.351l-20,11.569c-2.608,1.506-4.742.274-4.742-2.738v-9.812A10.517,10.517,0,0,1,349.1,909.344Z" transform="translate(-344.355 -896.554)" fill="#4f389e"/>
        <g id="Group_161" data-name="Group 161" transform="translate(3.129 7.064)">
          <path id="Path_174" data-name="Path 174" d="M406.438,938.956l5.524-3.211v-2.681l-5.524,3.211Z" transform="translate(-389.472 -928.311)" fill="#f4f4fb"/>
          <path id="Path_175" data-name="Path 175" d="M354.021,931.383v2.68l22.489-13.005v-2.68Z" transform="translate(-354.021 -918.377)" fill="#f4f4fb"/>
        </g>
      </g>
    </g>
  </g>
</svg>
